<svg version="1.1" xmlns="http://www.w3.org/2000/svg" xmlns:xlink="http://www.w3.org/1999/xlink" x="0px" y="0px"
	 width="51.469px" height="50.9px" viewBox="0 0 51.469 50.9" enable-background="new 0 0 51.469 50.9" xml:space="preserve">
<path fill="currentColor" d="M47.598,10.571c-0.011-0.094-0.021-0.188-0.031-0.282l0,0l0,0
	c-0.091-1.24-0.561-2.362-1.068-3.474c-0.096-0.211-0.242-0.37-0.454-0.464c-1.113-0.499-2.23-0.986-3.473-1.066l-0.064-0.038
	l-0.071,0.024c-1.085-0.256-2.17-0.256-3.257-0.014c-0.091,0.012-0.183,0.024-0.274,0.036c-2.082,0.26-3.833,1.221-5.359,2.605
	c-0.902,0.818-1.727,1.724-2.611,2.562c-0.463,0.438-0.398,0.756,0.056,1.152c1.21,1.054,2.393,2.14,3.655,3.275
	c-0.896,0.869-1.749,1.698-2.604,2.525c-0.269,0.26-0.54,0.521-0.231,0.917c0.184,0.236-0.011,0.354-0.139,0.48
	c-0.614,0.605-1.154,1.208-1.722,1.811l-0.014-0.009l-1.01,0.975c-0.032,0.027-0.064,0.058-0.095,0.092l-0.815,0.787
	c-0.028,0.002-0.057,0.003-0.084,0.008c-0.135,0.065-0.263,0.134-0.225,0.29l-0.687,0.663c-0.064-0.017-0.14-0.004-0.224,0.034
	c-0.072,0.041-0.135,0.094-0.188,0.157c-0.058,0.087-0.095,0.178-0.072,0.277l-0.001,0c-0.264-0.01-0.428,0.198-0.604,0.377
	c-0.009,0.009-0.016,0.02-0.023,0.029c-0.069-0.048-0.147-0.081-0.229-0.109l-0.605-0.588c-0.16-0.236-0.335-0.458-0.604-0.587
	l-1.718-1.671c-0.031-0.095-0.09-0.171-0.204-0.213c-0.187-0.176-0.372-0.353-0.559-0.529l-0.856-0.833
	c0.365-1.179-0.763-1.484-1.277-2.125c-0.276-0.343-0.192-0.473,0.06-0.715c0.674-0.65,1.332-1.318,1.988-1.986
	c0.226-0.231,0.507-0.439,0.492-0.819c0.171-0.282,0.117-0.558-0.023-0.832c-0.29-0.821-1.111-1.589-1.666-1.576
	c-1.563,0.037-1.998-1.244-2.832-1.994c-1.646-1.483-3.158-3.115-4.731-4.68c-0.265-0.264-0.553-0.69-0.958-0.275
	c-0.404,0.413,0.03,0.694,0.293,0.957c2.075,2.082,4.155,4.16,6.235,6.237c0.327,0.327,0.691,0.535,0.127,1.083
	c-0.556,0.539-0.768,0.263-1.145-0.118c-2.047-2.071-4.112-4.124-6.171-6.185c-0.317-0.318-0.618-0.685-1.116-0.281
	c-0.371,0.403-0.116,0.724,0.164,1.003c1.903,1.898,3.738,3.867,5.723,5.684c0.226,0.207,0.383,0.47,0.617,0.67
	c0.247,0.21,0.281,0.471,0.087,0.74c-0.24,0.333-0.475,0.148-0.71-0.016c-0.136-0.095-0.278-0.182-0.448-0.206l0.043-0.046
	l-0.045,0.044c-0.387-0.896-1.208-1.414-1.847-2.083c-1.11-1.161-2.268-2.276-3.399-3.417c-0.157-0.159-0.32-0.312-0.567-0.311
	c-0.388-0.159-0.65-0.953-1.15-0.425C8.339,8.663,9.077,8.968,9.38,9.276c1.984,2.022,3.996,4.018,6.002,6.019
	c0.332,0.332,0.696,0.545,0.121,1.084c-0.502,0.47-0.703,0.325-1.086-0.064c-2.028-2.058-4.078-4.093-6.122-6.135
	c-0.157-0.157-0.311-0.32-0.483-0.458C7.618,9.569,7.397,9.551,7.205,9.728c-0.22,0.203-0.219,0.443-0.038,0.667
	c0.139,0.172,0.304,0.325,0.46,0.482c2.063,2.063,4.116,4.134,6.195,6.179c0.371,0.365,0.432,0.575,0.019,0.96
	c-0.377,0.351-0.569,0.515-1.021,0.049c-2.031-2.093-4.11-4.139-6.173-6.201c-0.157-0.157-0.309-0.323-0.48-0.461
	c-0.223-0.178-0.462-0.191-0.667,0.033c-0.174,0.192-0.165,0.411-0.009,0.605c0.139,0.173,0.302,0.325,0.459,0.482
	c2.022,2.024,4.041,4.052,6.074,6.065c0.377,0.374,0.667,0.587,0.122,1.149c-0.603,0.623-0.815,0.133-1.137-0.187
	c-1.968-1.96-3.93-3.926-5.895-5.89c-0.156-0.157-0.313-0.314-0.472-0.47c-0.238-0.233-0.504-0.397-0.79-0.103
	c-0.284,0.292-0.117,0.558,0.117,0.792c0.863,0.865,1.744,1.713,2.588,2.598c0.839,0.879,1.813,1.631,2.511,2.644
	c0.098,0.462,0.505,0.681,0.788,0.995c0.291,0.321,0.611,0.616,0.65,1.085c0.013,0.366,0.153,0.678,0.402,0.944
	c0.07,0.091,0.146,0.179,0.223,0.266c0.349,0.396,0.59,0.929,1.22,0.973c0.074-0.01,0.147-0.019,0.221-0.026
	c0.063,0.028,0.126,0.057,0.188,0.086c0.074-0.028,0.149-0.057,0.225-0.085c0.078,0.009,0.156,0.025,0.234,0.05
	c0.114,0.019,0.226,0.012,0.336-0.025c0.374-0.196,0.603-0.573,0.968-0.78c0.397-0.257,0.663-0.645,0.968-0.991
	c0.87-0.99,0.867-0.993,1.79-0.057c0.382,0.381,0.746,0.783,1.369,0.736c0.226-0.017,0.376,0.191,0.549,0.318l0,0l2.387,2.437
	c0.005,0.013,0.007,0.026,0.012,0.039c0.161,0.323,0.422,0.545,0.729,0.718l0.775,0.792c0.083,0.404-0.181,0.735-0.569,1.046
	c-0.188,0.151-0.347,0.341-0.527,0.505c-0.189,0.167-0.387,0.326-0.573,0.497c-0.053,0.046-0.101,0.098-0.144,0.153
	c-0.099,0.138-0.205,0.269-0.343,0.372c-0.116,0.087-0.173,0.208-0.201,0.347c0.054,0.351-0.257,0.468-0.438,0.652
	c-1.09,1.109-2.193,2.206-3.294,3.303c-0.205,0.204-0.38,0.514-0.739,0.183c-0.127-0.117-0.376-0.101-0.461,0.032
	c-0.601,0.927-1.646,0.633-2.473,0.93c-0.095,0.01-0.189,0.021-0.285,0.031c-2.529,0.146-4.683,1.045-6.284,3.091
	c-0.273,0.35-0.319,0.615,0.001,0.936c2.459,2.454,4.917,4.908,7.367,7.371c0.4,0.403,0.662,0.233,1.054-0.059
	c2.246-1.678,2.731-4.13,3.022-6.679c0.011-0.094,0.021-0.188,0.031-0.283c0.205-0.697,0.158-1.507,0.896-1.965
	c0.057-0.035,0.114-0.172,0.09-0.219c-0.463-0.89,0.354-1.199,0.779-1.633c1.824-1.869,3.694-3.693,5.522-5.559
	c0.372-0.379,0.573-0.41,0.967-0.008c2.258,2.301,4.547,4.57,6.829,6.846c0.217,0.216,0.462,0.399,0.169,0.734
	c-0.104,0.12-0.062,0.305,0.045,0.38c0.73,0.517,0.645,1.354,0.84,2.08l0.193,1.296c0.108,2.176,1.209,3.804,2.827,5.154
	c0.33,0.275,0.59,0.216,0.866-0.061c2.295-2.298,4.589-4.596,6.892-6.887c0.418-0.416,0.175-0.682-0.104-1.051
	c-1.593-2.12-3.924-2.535-6.325-2.812l0,0c-0.097-0.01-0.192-0.021-0.289-0.031c-0.592-0.178-1.271-0.167-1.66-0.786
	c-0.05-0.08-0.237-0.169-0.286-0.138c-0.749,0.481-1.006-0.237-1.359-0.587c-1.653-1.637-3.278-3.303-4.913-4.959
	c-0.347-0.631-0.909-1.078-1.374-1.607c-0.19-0.209-0.151-0.416-0.053-0.626l0.824-0.835c0.21-0.116,0.341-0.384,0.541-0.52
	c0.033-0.038,0.062-0.078,0.089-0.119l2.472-2.503c0.231-0.135,0.402-0.361,0.608-0.536c0.434-0.471,0.84-0.949,1.608-0.807
	c0.348,0.064,0.598-0.249,0.835-0.482c0.572-0.564,1.153-1.122,1.702-1.709c0.376-0.403,0.675-0.376,1.029,0.018
	c0.573,0.638,1.08,1.338,1.732,1.904c0.134,0.129,0.258,0.266,0.358,0.424c0.126,0.19,0.271,0.365,0.429,0.53
	c0.769,0.659,0.911,0.656,1.629-0.039c0.216-0.208,0.427-0.421,0.638-0.635c0.234-0.252,0.503-0.48,0.604-0.831
	c1.02-1.116,2.093-2.191,2.741-3.592c0.451-0.978,0.867-1.965,0.934-3.059c0.011-0.09,0.021-0.18,0.031-0.27
	C47.823,12.537,47.819,11.554,47.598,10.571z M36.864,38.898c0.036-0.633,0.315-1.054,0.986-1.115
	c1.232-0.113,2.362,0.229,3.473,0.711c-1.265,1.267-2.474,2.478-3.741,3.748C37.141,41.129,36.797,40.06,36.864,38.898z
	 M36.599,38.666c0.025,0.005,0.051,0.009,0.076,0.014c0,0.364,0,0.728,0,1.092c-0.025-0.001-0.051-0.003-0.076-0.005
	C36.599,39.399,36.599,39.032,36.599,38.666z M15.727,39.14l-0.022,0.294c-0.29,0.857-0.371,1.784-0.759,2.436
	c-1.323-1.324-2.658-2.66-3.984-3.987c0.696-0.301,1.518-0.533,2.364-0.677C15.123,36.9,15.654,37.331,15.727,39.14z"/>
</svg>
