<svg version="1.1" xmlns="http://www.w3.org/2000/svg" xmlns:xlink="http://www.w3.org/1999/xlink" x="0px" y="0px"
	 width="51.469px" height="50.9px" viewBox="0 0 51.469 50.9" enable-background="new 0 0 51.469 50.9" xml:space="preserve">
<g>
	<path fill="currentColor" d="M42.163,37.617V9.052l-1.09,0.091c-4.371,0.361-8.658,1.406-12.706,3.097l-1.918,0.796v28.452l1.396-0.581
		c4.188-1.743,8.623-2.821,13.144-3.196L42.163,37.617z"/>
	<path fill="currentColor" d="M45.734,13.275h-2.143v25c0.001,0.373-0.284,0.684-0.656,0.714l-1.829,0.15
		c-0.527,0.044-1.055,0.098-1.579,0.162c-0.17,0.021-0.339,0.048-0.508,0.072c-0.354,0.047-0.707,0.095-1.059,0.15
		c-0.205,0.033-0.409,0.071-0.613,0.107c-0.315,0.055-0.631,0.11-0.945,0.172c-0.214,0.043-0.429,0.091-0.647,0.137
		c-0.299,0.063-0.599,0.128-0.896,0.199c-0.223,0.053-0.445,0.109-0.666,0.166c-0.289,0.072-0.577,0.149-0.864,0.229
		c-0.224,0.062-0.447,0.126-0.67,0.192c-0.286,0.084-0.567,0.17-0.85,0.26c-0.221,0.071-0.442,0.143-0.662,0.214
		c-0.282,0.095-0.563,0.194-0.844,0.295c-0.214,0.078-0.429,0.156-0.647,0.238c-0.098,0.037-0.195,0.077-0.293,0.115h16.371V13.275z
		"/>
	<path fill="currentColor" d="M10.396,9.144l-1.09-0.091v28.567l1.269,0.108c4.518,0.378,8.947,1.462,13.129,3.214l1.317,0.548V13.037
		l-1.917-0.796C19.057,10.55,14.769,9.505,10.396,9.144z"/>
	<path fill="currentColor" d="M5.734,13.275v28.571h16.383c-0.088-0.034-0.176-0.071-0.264-0.104c-0.205-0.078-0.411-0.152-0.616-0.227
		c-0.291-0.105-0.58-0.208-0.873-0.306c-0.211-0.071-0.423-0.141-0.636-0.208c-0.289-0.095-0.58-0.185-0.872-0.269
		c-0.214-0.063-0.429-0.125-0.643-0.186c-0.294-0.082-0.588-0.159-0.883-0.234c-0.214-0.055-0.429-0.11-0.647-0.161
		c-0.3-0.072-0.601-0.137-0.901-0.202c-0.214-0.046-0.429-0.094-0.643-0.137c-0.312-0.061-0.624-0.116-0.938-0.171
		c-0.205-0.036-0.41-0.072-0.615-0.108c-0.346-0.055-0.691-0.101-1.038-0.147c-0.175-0.023-0.349-0.052-0.523-0.071
		c-0.523-0.063-1.048-0.118-1.571-0.162l-1.923-0.163c-0.371-0.032-0.655-0.342-0.654-0.714v-25H5.734z"/>
</g>
</svg>
