<svg version="1.1" xmlns="http://www.w3.org/2000/svg" xmlns:xlink="http://www.w3.org/1999/xlink" x="0px" y="0px"
	 width="51.469px" height="50.9px" viewBox="0 0 51.469 50.9" enable-background="new 0 0 51.469 50.9" xml:space="preserve">
<path fill="currentColor" d="M44.041,14.422h-1.342V12.4h-6.741v2.022h-2.695v-3.906c0-1.191-0.97-2.161-2.161-2.161
	H20.594c-1.192,0-2.162,0.969-2.162,2.161v3.906h-2.697V12.4h-6.74v2.022H7.652c-1.118,0-2.029,0.911-2.029,2.029v24.254
	c0,1.121,0.911,2.03,2.029,2.03h3.365h1.348h26.964h1.349h0.674h2.689c1.118,0,2.03-0.909,2.03-2.03V16.451
	C46.07,15.333,45.159,14.422,44.041,14.422z M19.779,10.516c0-0.448,0.365-0.813,0.814-0.813h10.508
	c0.448,0,0.813,0.365,0.813,0.813v3.906H19.779V10.516z M12.364,41.387h-1.348V15.771h1.348V41.387z M17.596,31.026h-2.913
	c-0.29,0-0.485-0.193-0.485-0.485v-8.738c0-0.098,0.098-0.291,0.195-0.388c0.097-0.097,0.191-0.097,0.29-0.097
	c1.069,0.097,4.368,0.29,5.146,1.067c0.195,0.098,0.195,0.291,0.195,0.388c-0.195,2.524-1.941,7.669-1.941,7.96
	C17.983,30.929,17.789,31.026,17.596,31.026z M31.672,32.579c-0.193,0.097-0.389,0.195-0.583,0.097l-2.814-2.815
	c-0.194-0.193-0.485-0.193-0.681,0c-0.192,0.196-0.192,0.485,0,0.681l2.721,2.717c-0.099,0.194-0.293,0.292-0.39,0.388
	c-0.29,0.098-0.68,0.098-0.777,0l-2.426-2.427c-0.194-0.193-0.486-0.193-0.68,0c-0.194,0.196-0.194,0.487,0,0.681l2.232,2.232
	c-0.097,0.292-0.193,0.485-0.485,0.583c-0.195,0-0.388,0.098-0.582-0.098l-1.941-1.941c-0.194-0.193-0.486-0.193-0.68,0
	c-0.194,0.195-0.194,0.486,0,0.681l1.554,1.552c-0.098,0-0.194,0-0.292,0c-0.292,0-0.873-0.193-1.164-0.387
	c-0.39-0.292-2.524-1.846-4.369-3.398c-0.291-0.194-0.681-0.68-1.067-1.067c0.484-1.36,1.164-3.885,1.553-5.827h1.94
	c-0.68,0.681-1.553,2.04-1.359,3.01c0.098,0.388,0.388,0.777,0.874,0.873c1.067,0.39,2.038,0,2.815-0.971
	c0.388,0,0.484-0.097,0.777-0.193c0-0.097,0.193-0.097,0.29-0.194c0.582,0.486,1.359,1.067,2.137,1.748
	c1.456,1.165,3.105,2.427,3.494,3.3C31.963,32.191,31.77,32.482,31.672,32.579z M32.449,30.831c-0.68-0.873-2.039-2.038-3.398-3.105
	c-0.873-0.777-1.747-1.457-2.234-1.941c-0.097,0-0.29-0.098-0.387-0.098s-0.098,0-0.194,0c-0.29,0.098-0.484,0.194-0.68,0.292
	c-0.29,0.097-0.388,0.193-0.679,0.193c-0.195,0-0.291,0.098-0.389,0.194c-0.679,1.069-1.357,0.972-1.845,0.777
	c-0.193-0.097-0.193-0.097-0.193-0.193c-0.097-0.388,0.389-1.358,1.068-2.039c1.554-1.554,2.33-1.941,4.077-1.165
	c0.776,0.292,1.649,0.68,2.621,0.971c0.485,0.873,1.65,4.174,2.33,6.115H32.449z M37.497,31.512c0,0.29-0.194,0.485-0.485,0.485
	h-2.913c-0.193,0-0.388-0.195-0.485-0.388c-0.29-1.359-2.233-6.698-2.814-7.669c-0.098-0.097-0.098-0.292-0.098-0.388
	c0.098-0.098,0.194-0.193,0.291-0.291c0.098,0,2.233-0.971,6.02-0.971c0.291,0,0.485,0.194,0.485,0.486V31.512z M40.677,41.387
	h-1.348V15.771h1.348V41.387z"/>
</svg>
