<svg version="1.1" xmlns="http://www.w3.org/2000/svg" xmlns:xlink="http://www.w3.org/1999/xlink" x="0px" y="0px"
	 width="51.469px" height="50.9px" viewBox="0 0 51.469 50.9" enable-background="new 0 0 51.469 50.9" xml:space="preserve">
<g>
	<path fill="currentColor" d="M43.867,9.235h-4.323V6.09c0-0.678-0.551-1.229-1.229-1.229h-5.11c-0.68,0-1.229,0.551-1.229,1.229v3.145
		H19.494V6.09c0-0.678-0.551-1.229-1.229-1.229h-5.11c-0.678,0-1.227,0.551-1.227,1.229v3.145H7.604
		c-0.68,0-1.229,0.549-1.229,1.229V44.81c0,0.679,0.551,1.229,1.229,1.229h36.264c0.678,0,1.228-0.549,1.228-1.229V10.464
		C45.095,9.784,44.545,9.235,43.867,9.235z M34.433,7.319h2.702v4.962h-2.702V7.319z M14.385,7.319h2.701v4.962h-2.701V7.319
		L14.385,7.319z M24.556,36.703c-0.477,0.468-1.242,0.468-1.72,0l-5.209-5.06l1.721-1.77l4.374,4.226l8.451-7.912l1.67,1.77
		L24.556,36.703z M42.639,19.258H8.832v-7.567h3.097v1.819c0,0.678,0.549,1.229,1.227,1.229h5.11c0.68,0,1.229-0.551,1.229-1.229
		v-1.819h12.48v1.819c0,0.678,0.551,1.229,1.229,1.229h5.111c0.677,0,1.227-0.551,1.227-1.229v-1.819h3.097V19.258z"/>
</g>
</svg>