<svg version="1.1" xmlns="http://www.w3.org/2000/svg" xmlns:xlink="http://www.w3.org/1999/xlink" x="0px" y="0px"
	 width="51.469px" height="50.9px" viewBox="0 0 51.469 50.9" enable-background="new 0 0 51.469 50.9" xml:space="preserve">
<g>
	<path fill="currentColor" d="M4.388,23.451h6.17v6.992h-6.17V23.451z"/>
	<path fill="currentColor" d="M4.388,39.902h6.17v6.992h-6.17V39.902z"/>
	<path fill="currentColor" d="M4.388,31.677h6.17v6.992h-6.17V31.677z" style="opacity: 0.5;"/>
	<path fill="currentColor" d="M38.112,7h6.169v6.992h-6.169V7z"/>
	<path fill="currentColor" d="M11.791,26.33h18.577c1.229-2.829,3.593-5.009,6.511-6.005V9.879H11.791V26.33z"/>
	<path fill="currentColor" d="M38.112,19.986c2.061-0.437,4.203-0.267,6.169,0.489v-5.249h-6.169V19.986z" style="opacity: 0.5;"/>
	<path fill="currentColor" d="M4.388,15.226h6.17v6.991h-6.17V15.226z" style="opacity: 0.5;"/>
	<path fill="currentColor" d="M4.388,7h6.17v6.992h-6.17V7z"/>
	<path fill="currentColor" d="M38.112,41.311v5.583h6.169v-6.072C42.315,41.578,40.173,41.747,38.112,41.311z"/>
	<path fill="currentColor" d="M40.374,20.983c-5.337,0-9.665,4.328-9.665,9.665c0,5.338,4.328,9.665,9.665,9.665
		c5.339,0,9.666-4.327,9.666-9.665C50.033,25.313,45.71,20.989,40.374,20.983z"/>
	<path fill="currentColor" d="M29.476,30.648c-0.001-1.044,0.149-2.083,0.445-3.084h-18.13v16.451h25.088v-3.042
		C32.457,39.468,29.481,35.318,29.476,30.648z"/>
	<g>
		<path class="no-blue" fill="#FFFFFF" d="M33.952,28.436h-0.303c-0.415,0-0.728,0.354-0.728,0.769v4.251c-0.005,0.196,0.07,0.384,0.207,0.523
			c0.138,0.139,0.325,0.216,0.521,0.213h8.035c0.199,0.004,0.391-0.072,0.533-0.21c0.143-0.139,0.224-0.328,0.226-0.526v-4.49
			c-1.206,0.609-2.663,0.397-3.645-0.531h-1.896c-0.366,0.435-0.907,0.686-1.476,0.686C34.858,29.121,34.319,28.87,33.952,28.436z
			 M36.087,30.857h2.851c0.179,0,0.323,0.144,0.323,0.323c0,0.178-0.145,0.322-0.323,0.322h-2.851c-0.18,0-0.322-0.144-0.322-0.322
			C35.765,31.001,35.907,30.857,36.087,30.857z"/>
		<path class="no-blue" fill="#FFFFFF" d="M36.719,27.2c0,0.713-0.577,1.291-1.291,1.291c-0.713,0-1.291-0.578-1.291-1.291
			c0-0.713,0.578-1.291,1.291-1.291C36.142,25.909,36.719,26.486,36.719,27.2z"/>
		<path class="no-blue" fill="#FFFFFF" d="M40.982,25.476c-0.357,0-0.648,0.291-0.648,0.647c0,0.358,0.291,0.649,0.648,0.649
			s0.648-0.291,0.648-0.648C41.631,25.766,41.34,25.476,40.982,25.476z"/>
		<path class="no-blue" fill="#FFFFFF" d="M47.877,34.817v-6.975l-1.096,0.313c-0.091,0.028-0.147,0.114-0.143,0.207v5.935
			c-0.005,0.093,0.052,0.179,0.143,0.208L47.877,34.817z"/>
		<path class="no-blue" fill="#FFFFFF" d="M40.982,23.574c-1.407,0-2.549,1.141-2.549,2.549s1.142,2.549,2.549,2.549
			c1.409,0,2.549-1.141,2.549-2.549C43.531,24.716,42.391,23.576,40.982,23.574z M40.982,27.417c-0.714,0-1.293-0.579-1.293-1.294
			s0.578-1.294,1.293-1.294c0.716,0,1.295,0.579,1.295,1.294C42.276,26.837,41.697,27.417,40.982,27.417z"/>
		<path class="no-blue" fill="#FFFFFF" d="M45.994,33.716v-4.771l-2.905,1.618v1.536L45.994,33.716z"/>
	</g>
	<path class="no-blue" fill="#FFFFFF" d="M28.518,19.259l-6.128,4.072c-0.103,0.067-0.222,0.103-0.345,0.103c-0.104,0-0.204-0.025-0.297-0.074
		c-0.202-0.106-0.331-0.314-0.336-0.544v-8.143c0.004-0.229,0.133-0.438,0.336-0.544c0.204-0.106,0.45-0.095,0.644,0.03l6.128,4.072
		c0.172,0.114,0.275,0.307,0.274,0.513C28.794,18.952,28.69,19.145,28.518,19.259L28.518,19.259z"/>
</g>
</svg>
