<svg version="1.1" xmlns="http://www.w3.org/2000/svg" xmlns:xlink="http://www.w3.org/1999/xlink" x="0px" y="0px"
	 width="51.469px" height="50.9px" viewBox="0 0 51.469 50.9" enable-background="new 0 0 51.469 50.9" xml:space="preserve">
	<g>
		<path fill="currentColor" d="M17.153,14.256H9.481c-1.413,0-2.557,1.112-2.557,2.485v27.342c0,1.374,1.144,2.485,2.557,2.485h7.672
			c1.412,0,2.556-1.111,2.556-2.485V16.741C19.709,15.369,18.565,14.256,17.153,14.256z M10.76,39.112
			c-0.705,0-1.277-0.557-1.277-1.244c0-0.687,0.572-1.242,1.277-1.242c0.707,0,1.279,0.555,1.279,1.242
			C12.039,38.555,11.467,39.112,10.76,39.112z M17.153,24.197H9.481v-2.486h7.672V24.197L17.153,24.197z M17.153,19.226H9.481
			v-2.485h7.672V19.226L17.153,19.226z"/>
		<path fill="currentColor" d="M33.773,41.597v-2.485h-7.672v2.485c-1.413,0-2.558,1.112-2.558,2.486h12.785
			C36.329,42.708,35.186,41.597,33.773,41.597z"/>
		<path fill="currentColor" d="M45.278,9.284H14.596c-1.413,0-2.557,1.115-2.557,2.486h2.557h7.671h23.013v19.883H22.267v4.972h23.013
			c1.413,0,2.557-1.111,2.557-2.487V11.77C47.836,10.397,46.691,9.284,45.278,9.284z M29.938,35.383
			c-0.708,0-1.279-0.555-1.279-1.245c0-0.686,0.571-1.242,1.279-1.242c0.705,0,1.279,0.556,1.279,1.242
			C31.217,34.828,30.643,35.383,29.938,35.383z"/>
	</g>
</svg>