<svg version="1.1" xmlns="http://www.w3.org/2000/svg" xmlns:xlink="http://www.w3.org/1999/xlink" x="0px" y="0px"
	 width="51.469px" height="50.9px" viewBox="0 0 51.469 50.9" enable-background="new 0 0 51.469 50.9" xml:space="preserve">
<g>
	<path fill="currentColor" d="M44.738,15.46H41.57v-1.979c0-1.188-0.791-1.979-1.977-1.979h-3.962V5.563h-1.977v5.939H9.899
		c-1.187,0-1.979,0.792-1.979,1.979v9.897c0,1.188,0.793,1.979,1.979,1.979v1.187c0,0.396,0.397,0.792,0.792,0.792h1.188v3.959
		h1.979v-3.959h1.188c0.397,0,0.794-0.395,0.794-0.792v-1.187c1.187,0,1.978-0.79,1.978-1.979v-1.981
		c0-1.188,0.792-1.979,1.979-1.979h5.938c1.188,0,1.98,0.791,1.98,1.979v15.836c0,1.188-0.792,1.98-1.98,1.98H7.92
		c-1.187,0-1.979,0.791-1.979,1.979v1.978c0,1.187,0.793,1.979,1.979,1.979h31.672c1.188,0,1.979-0.792,1.979-1.979V25.358h3.168
		c0.397,0,0.791-0.396,0.791-0.79v-8.316C45.532,15.856,45.136,15.46,44.738,15.46z M31.675,21.398c1.189,0,1.98,0.792,1.98,1.981
		s-0.791,1.979-1.98,1.979c-1.188,0-1.979-0.79-1.979-1.979S30.486,21.398,31.675,21.398z M31.675,27.336
		c1.189,0,1.98,0.793,1.98,1.979c0,1.188-0.791,1.98-1.98,1.98c-1.188,0-1.979-0.792-1.979-1.98
		C29.695,28.13,30.486,27.336,31.675,27.336z M39.594,38.423c0,0.395-0.397,0.792-0.791,0.792h-8.316
		c-0.396,0-0.791-0.396-0.791-0.792v-4.357c0-0.395,0.396-0.791,0.791-0.791h8.316c0.394,0,0.791,0.396,0.791,0.791V38.423
		L39.594,38.423z M37.611,31.296c-1.186,0-1.979-0.792-1.979-1.98c0-1.186,0.794-1.978,1.979-1.978c1.188,0,1.98,0.792,1.98,1.978
		C39.594,30.504,38.8,31.296,37.611,31.296z M37.611,25.358c-1.186,0-1.979-0.79-1.979-1.979s0.794-1.981,1.979-1.981
		c1.188,0,1.98,0.792,1.98,1.981S38.8,25.358,37.611,25.358z"/>
</g>
</svg>