<?xml version="1.0" encoding="utf-8"?>
<!-- Generator: Adobe Illustrator 16.0.0, SVG Export Plug-In . SVG Version: 6.00 Build 0)  -->
<!DOCTYPE svg PUBLIC "-//W3C//DTD SVG 1.1//EN" "http://www.w3.org/Graphics/SVG/1.1/DTD/svg11.dtd">
<svg version="1.1" id="Layer_1" xmlns="http://www.w3.org/2000/svg" xmlns:xlink="http://www.w3.org/1999/xlink" x="0px" y="0px"
	 width="51.469px" height="50.9px" viewBox="0 0 51.469 50.9" enable-background="new 0 0 51.469 50.9" xml:space="preserve">
<g id="Customizer_Specialist">
	<path fill="#898A8C" d="M28.015,38.244c3.421-0.625,6.368-2.594,8.271-5.35c-1-0.698-2.728-1.248-4.45-1.966
		c-2.211-0.923-2.737-1.242-2.737-1.242l-0.019-2.124c0,0,0.827-0.637,1.085-2.636c0.518,0.15,1.064-0.776,1.094-1.262
		c0.028-0.468-0.071-1.77-0.703-1.641c0.127-0.979,0.222-1.86,0.176-2.325c-0.163-1.707-1.846-3.507-4.428-3.507
		c-2.584,0-4.265,1.8-4.426,3.507c-0.047,0.466,0.047,1.346,0.176,2.325c-0.634-0.129-0.733,1.172-0.704,1.641
		c0.029,0.486,0.573,1.412,1.093,1.262c0.256,1.999,1.087,2.636,1.087,2.636l-0.021,2.124c0,0-0.525,0.319-2.739,1.242
		c-2.213,0.923-4.451,1.567-5.114,2.606c-0.009,0.016-0.017,0.038-0.025,0.053c2.009,2.53,4.946,4.279,8.301,4.74l2.068-3.667
		L28.015,38.244z M25.995,31.808l1.426,1.426l-1.424,1.425l-1.427-1.425L25.995,31.808z"/>
	<path fill="#898A8C" d="M47.779,22.361l-4.783-0.566c-0.458-2.175-1.314-4.203-2.494-6.005l2.984-3.785
		c0.213-0.266,0.188-0.688-0.055-0.927L40.05,7.691c-0.246-0.243-0.662-0.268-0.934-0.054l-3.784,2.983
		c-1.801-1.176-3.827-2.036-6.006-2.491l-0.563-4.784c-0.042-0.339-0.354-0.618-0.699-0.618h-4.787
		c-0.343,0-0.653,0.279-0.698,0.618l-0.564,4.784c-2.176,0.455-4.202,1.315-6.002,2.491l-3.786-2.983
		c-0.271-0.214-0.686-0.189-0.93,0.054l-3.383,3.387c-0.245,0.24-0.275,0.662-0.058,0.929l2.981,3.783
		c-1.174,1.802-2.033,3.83-2.489,6.005l-4.781,0.566c-0.343,0.038-0.62,0.354-0.62,0.696v4.787c0,0.345,0.277,0.655,0.62,0.698
		l4.781,0.562c0.456,2.18,1.315,4.207,2.489,6.009l-2.981,3.786c-0.218,0.267-0.188,0.685,0.058,0.927l3.383,3.386
		c0.241,0.244,0.659,0.266,0.932,0.055l3.784-2.986c1.8,1.178,3.826,2.037,6.002,2.495l0.564,4.781
		c0.044,0.341,0.354,0.618,0.698,0.618h4.787c0.345,0,0.657-0.276,0.699-0.618l0.562-4.781c2.18-0.458,4.206-1.317,6.007-2.495
		l3.784,2.986c0.27,0.211,0.687,0.187,0.933-0.055l3.383-3.386c0.243-0.242,0.267-0.66,0.055-0.927l-2.985-3.786
		c1.18-1.802,2.037-3.83,2.495-6.009l4.783-0.563c0.338-0.042,0.617-0.352,0.617-0.697v-4.787
		C48.397,22.715,48.117,22.399,47.779,22.361z M25.671,39.911c-7.984,0-14.458-6.475-14.458-14.462
		c0-7.984,6.474-14.459,14.458-14.459c7.989,0,14.463,6.475,14.463,14.459C40.134,33.436,33.659,39.911,25.671,39.911z"/>
</g>
</svg>
