<svg version="1.1" xmlns="http://www.w3.org/2000/svg" xmlns:xlink="http://www.w3.org/1999/xlink" x="0px" y="0px"
	 width="51.469px" height="50.9px" viewBox="0 0 51.469 50.9" enable-background="new 0 0 51.469 50.9" xml:space="preserve">
<g>
	<g>
		<path fill="currentColor" d="M9.229,15.941H27.94c0.353,0,0.706-0.353,0.706-0.706c0-0.423-0.354-0.706-0.706-0.706h-0.988
			c0.211-4.167-2.612-7.343-5.86-8.333V4.925c0-0.353-0.282-0.706-0.707-0.706h-3.53c-0.423,0-0.707,0.353-0.707,0.706v1.271
			c-3.459,1.059-6.213,4.307-5.86,8.333H9.229c-0.354,0-0.706,0.282-0.706,0.706C8.523,15.587,8.875,15.941,9.229,15.941z"/>
	</g>
	<g>
		<path fill="currentColor" d="M18.62,23.778c3.459,0,6.354-2.753,6.99-6.496H11.56C12.194,21.024,15.16,23.778,18.62,23.778z"/>
	</g>
	<g>
		<path fill="currentColor" d="M28.787,33.522c-0.211-0.565-0.281-1.271,0.212-2.047c4.237-4.307,2.754-2.825,3.106-3.107
			c0.283-0.282,0.565-0.495,0.919-0.564c-0.282-0.918-0.919-1.695-1.765-2.19c-2.119-1.2-4.237-2.048-6.355-2.612
			c-0.282-0.069-0.637,0.071-0.777,0.354l-4.307,7.697h-2.33l-4.236-7.626c-0.142-0.282-0.495-0.423-0.777-0.352
			c-2.118,0.564-4.237,1.482-6.355,2.613c-1.2,0.635-1.977,1.906-2.048,3.247L3.015,42.56c0,0.212,0.071,0.423,0.213,0.564
			c0.14,0.142,0.281,0.212,0.494,0.212h25.065c-0.281-0.564-0.211-1.2,0-1.765c-0.281-0.141-0.564-0.282-0.777-0.494
			c-0.423-0.423-0.635-0.918-0.635-1.483c0.142-3.46-0.423-4.59,0.635-5.578C28.293,33.804,28.506,33.664,28.787,33.522z"/>
	</g>
	<g>
		<path fill="currentColor" d="M47.993,35.076c-0.141-0.141-0.282-0.213-0.495-0.213H45.45c-0.069-0.071-0.069-0.14-0.141-0.282
			l1.413-1.413c0.282-0.283,0.282-0.705,0-0.988l-2.754-2.895c-0.282-0.283-0.706-0.283-0.988,0l-1.412,1.412
			c-0.07-0.07-0.141-0.07-0.282-0.07v-2.048c0-0.423-0.282-0.705-0.706-0.705h-4.095c-0.212,0-0.354,0.07-0.495,0.211
			c-0.141,0.141-0.212,0.282-0.212,0.495v2.048c-0.07,0-0.141,0.071-0.212,0.071l-1.413-1.413c-0.283-0.282-0.705-0.282-0.988,0
			c-0.07,0.141-2.824,2.825-2.895,2.896c-0.213,0.423-0.283,0.776,0.07,1.059c0.565,0.565,0.988,1.06,1.342,1.342
			c0,0.07-0.07,0.141-0.07,0.282h-2.048c-0.212,0-0.353,0.071-0.495,0.212c-0.142,0.141-0.211,0.282-0.211,0.494
			c0,0.07,0,3.742,0,4.095l0,0c0,0.212,0.069,0.353,0.211,0.494c0.213,0.213,0.565,0.213,0.777,0.213h1.766
			c0,0.07,0.07,0.141,0.07,0.211l-1.412,1.412c-0.283,0.283-0.283,0.707,0,0.989l2.895,2.895l0,0c0.283,0.283,0.705,0.283,0.988,0
			l0.071-0.071l1.342-1.341c0.07,0,0.141,0.07,0.282,0.14v1.978c0,0.352,0.282,0.705,0.706,0.705h4.095
			c0.212,0,0.353-0.07,0.495-0.212c0.14-0.141,0.211-0.282,0.211-0.494v-2.048c0.07,0,0.142-0.071,0.213-0.071l1.411,1.413
			c0.142,0.14,0.283,0.211,0.495,0.211s0.353-0.07,0.494-0.211l2.895-2.896c0.283-0.282,0.283-0.705,0-0.988l-1.412-1.413
			c0-0.069,0.071-0.14,0.071-0.211h2.047c0.424,0,0.706-0.282,0.706-0.706v-3.813v-0.283C48.205,35.428,48.135,35.216,47.993,35.076
			z M42.485,38.042c-0.141,1.059-0.636,2.046-1.482,2.682c-0.705,0.565-1.553,0.847-2.471,0.847c-2.4,0-4.308-2.118-4.025-4.519
			c0.282-2.19,2.259-3.813,4.448-3.531C41.215,33.875,42.768,35.852,42.485,38.042z"/>
	</g>
</g>
</svg>
