<svg version="1.1" xmlns="http://www.w3.org/2000/svg" xmlns:xlink="http://www.w3.org/1999/xlink" x="0px" y="0px"
	 width="51.469px" height="50.9px" viewBox="0 0 51.469 50.9" enable-background="new 0 0 51.469 50.9" xml:space="preserve">
<g>
	<g>
		<polygon fill="currentColor" points="15.028,23.246 15.028,21.265 12.479,21.265 12.479,23.246 10.545,23.246 10.545,25.794
			12.479,25.794 12.479,27.729 15.028,27.729 15.028,25.794 17.01,25.794 17.01,23.246 		"/>
		<path fill="currentColor" d="M25.598,18.15h-5.426c0,0-1.604-0.377-2.784-2.076c-0.472-0.708-1.228-1.18-2.076-1.227
			c-1.888-0.141-5.144,0.095-6.795,2.784c-2.407,3.917-5.805,21.423,0.99,23.547c0,0,3.634,1.18,6.135-4.908l1.227-1.51
			c0,0,1.321,1.462,3.209,1.416c2.643-0.095,4.436-1.51,4.907-2.926h1.321h0.896h1.321c0.425,1.416,2.359,2.973,4.907,2.926
			c1.416,0,3.209-1.416,3.209-1.416l1.228,1.51c2.5,6.04,6.134,4.908,6.134,4.908c6.748-2.171,3.351-19.677,0.944-23.594
			c-1.652-2.643-4.86-2.878-6.796-2.784c-0.849,0.047-1.604,0.519-2.076,1.227c-1.18,1.698-2.783,2.076-2.783,2.076h-5.663
			L25.598,18.15z M13.754,28.909c-2.454,0-4.436-1.982-4.436-4.436s1.981-4.436,4.436-4.436s4.482,1.982,4.482,4.436
			S16.208,28.909,13.754,28.909z M20.69,34.052c-1.368,0-2.501-1.132-2.501-2.501c0-1.368,1.133-2.501,2.501-2.501
			s2.501,1.133,2.501,2.501C23.191,32.92,22.106,34.052,20.69,34.052z M27.25,26.502h-1.038c-0.614,0-1.086-0.472-1.086-1.085
			s0.472-1.085,1.086-1.085h1.038c0.613,0,1.085,0.472,1.085,1.085S27.815,26.502,27.25,26.502z M38.339,21.17
			c0-0.613,0.519-1.132,1.132-1.132h0.756c0.613,0,1.132,0.519,1.132,1.132v0.755c0,0.614-0.519,1.133-1.132,1.133h-0.756
			c-0.613,0-1.132-0.519-1.132-1.133V21.17z M32.582,34.052c-1.369,0-2.501-1.132-2.501-2.501c0-1.368,1.132-2.501,2.501-2.501
			c1.368,0,2.501,1.133,2.501,2.501C35.083,32.92,33.997,34.052,32.582,34.052z M37.206,26.03h-0.755
			c-0.613,0-1.133-0.519-1.133-1.132v-0.755c0-0.614,0.52-1.133,1.133-1.133h0.755c0.613,0,1.133,0.519,1.133,1.133v0.755
			C38.339,25.511,37.819,26.03,37.206,26.03z M41.312,27.871c0,0.613-0.52,1.133-1.133,1.133h-0.755
			c-0.613,0-1.133-0.52-1.133-1.133v-0.755c0-0.613,0.52-1.132,1.133-1.132h0.755c0.613,0,1.133,0.519,1.133,1.132V27.871z
			 M44.284,24.898c0,0.613-0.519,1.132-1.133,1.132h-0.755c-0.613,0-1.132-0.519-1.132-1.132v-0.755
			c0-0.614,0.519-1.133,1.132-1.133h0.755c0.614,0,1.133,0.519,1.133,1.133V24.898z"/>
	</g>
</g>
</svg>
