<svg version="1.1" xmlns="http://www.w3.org/2000/svg" xmlns:xlink="http://www.w3.org/1999/xlink" x="0px" y="0px"
	 width="51.469px" height="50.9px" viewBox="0 0 51.469 50.9" enable-background="new 0 0 51.469 50.9" xml:space="preserve">
<g>
	<g>
		<g>
			<path fill="currentColor" d="M26.16,14.451c-0.652,0-1.2,0.373-1.504,0.901c-9.474,0.211-13.133,5.101-13.422,9.905
				c-0.532,0.305-0.909,0.855-0.909,1.511c0,0.972,0.793,1.764,1.765,1.764s1.765-0.792,1.765-1.764
				c0-0.631-0.352-1.161-0.854-1.473c0.186-2.469,1.744-7.954,11.684-8.173c0.311,0.503,0.844,0.857,1.476,0.857
				c0.974,0,1.764-0.792,1.764-1.763C27.924,15.243,27.134,14.451,26.16,14.451z"/>
			<path fill="currentColor" d="M41.66,23.443l-8.795-7.036c-0.265-0.212-0.627-0.253-0.931-0.106c-0.305,0.147-0.499,0.455-0.499,0.793
				v11.432c0,0.374,0.237,0.706,0.59,0.83c0.095,0.033,0.193,0.049,0.291,0.049c0.262,0,0.516-0.118,0.687-0.33l3.253-4.067h4.854
				c0.374,0,0.705-0.236,0.83-0.588C42.063,24.069,41.95,23.676,41.66,23.443z"/>
			<path fill="currentColor" d="M43.749,7.421H8.573c-1.94,0-3.519,1.578-3.519,3.518v24.624c0,1.94,1.578,3.518,3.519,3.518h12.314
				c-0.037,1.403-0.305,3.648-1.312,4.708c-0.368,0.388-0.791,0.568-1.33,0.568c-0.486,0-0.881,0.394-0.881,0.88
				c0,0.486,0.395,0.879,0.881,0.879h15.829c0.485,0,0.879-0.393,0.879-0.879c0-0.486-0.394-0.88-0.879-0.88
				c-0.539,0-0.961-0.18-1.33-0.568c-1.003-1.054-1.272-3.302-1.311-4.708h12.314c1.938,0,3.518-1.578,3.518-3.518V10.938
				C47.266,8.999,45.687,7.421,43.749,7.421z M26.16,37.326c-0.972,0-1.765-0.792-1.765-1.764c0-0.973,0.793-1.764,1.765-1.764
				c0.974,0,1.764,0.792,1.764,1.764C27.924,36.534,27.134,37.326,26.16,37.326z M8.573,32.044V10.938h35.176l0.001,21.106H8.573z"
				/>
		</g>
	</g>
</g>
</svg>
