<svg version="1.1" xmlns="http://www.w3.org/2000/svg" xmlns:xlink="http://www.w3.org/1999/xlink" x="0px" y="0px"
	 width="51.469px" height="50.9px" viewBox="0 0 51.469 50.9" enable-background="new 0 0 51.469 50.9" xml:space="preserve">
<g>
	<path fill="currentColor" d="M46.161,24.946c0,0-8.264-6.761-15.024,2.253c0,0-6.01-5.258-12.771,0l-0.751-12.77
		c0,0-0.332-0.457-0.847-1.122l0.411,0.042c0,0,2.661,0,3.104-0.995l1.477,1.362c0.584,0.491,1.452,0.429,1.961-0.141l3.652-4.094
		c0.442-0.496,0.479-1.233,0.087-1.771l-4.072-5.3L11.413,7.879c0,0-0.444,0.196-0.559,0.54c-0.751,2.253-6.761,24.038-6.761,25.541
		v1.744c0,0.324,0.146,0.628,0.401,0.829c0.325,0.255,1.946,0.703,2.604,1.184c2.836,2.073,7.247,5.7,12.019,6.761
		c6.761,1.502,15.024-0.751,15.024-0.751s5.258,3.005,12.019,2.253L46.161,24.946"/>
	<path class="no-blue" fill="#FFFFFF" d="M13.107,34.711c-0.131,0-0.265,0.035-0.386,0.107c-0.355,0.213-0.471,0.674-0.258,1.03
		c0.033,0.054,0.934,1.546,2.863,3.047c1.924,1.499,4.9,2.998,8.983,2.998h0.01c1.226,0,2.549-0.134,3.97-0.438
		c0.405-0.087,0.664-0.486,0.577-0.892c-0.076-0.353-0.388-0.594-0.734-0.594c-0.052,0-0.104,0.005-0.158,0.017
		c-1.322,0.284-2.538,0.405-3.654,0.405c-3.715-0.002-6.342-1.342-8.071-2.682c-0.862-0.67-1.495-1.341-1.907-1.839
		c-0.206-0.248-0.357-0.454-0.455-0.594c-0.049-0.07-0.084-0.124-0.106-0.158l-0.023-0.037l-0.005-0.007
		C13.611,34.84,13.362,34.711,13.107,34.711"/>
	<path class="no-blue" fill="#FFFFFF" d="M26.602,9.506l1.213,2.458c0.111,0.227,0.328,0.384,0.579,0.421l2.713,0.394
		c0.42,0.061,0.711,0.452,0.65,0.872c-0.024,0.167-0.104,0.322-0.225,0.44l-1.963,1.914c-0.181,0.177-0.264,0.431-0.221,0.681
		l0.463,2.702c0.072,0.418-0.209,0.816-0.628,0.888c-0.167,0.029-0.338,0.001-0.488-0.077l-2.426-1.275
		c-0.225-0.118-0.492-0.118-0.716,0l-2.427,1.275c-0.376,0.198-0.841,0.053-1.038-0.323c-0.079-0.149-0.106-0.321-0.078-0.488
		l0.464-2.702c0.043-0.25-0.04-0.504-0.222-0.681l-1.963-1.914c-0.304-0.296-0.31-0.784-0.013-1.087
		c0.118-0.121,0.272-0.2,0.439-0.224l2.713-0.394c0.25-0.037,0.467-0.194,0.579-0.421l1.213-2.458
		c0.188-0.381,0.649-0.538,1.03-0.35C26.403,9.231,26.526,9.354,26.602,9.506L26.602,9.506z"/>
	<path fill="currentColor" d="M25.792,17.541l-2.131,1.12c-0.125,0.066-0.28,0.018-0.346-0.108c-0.026-0.05-0.035-0.107-0.026-0.162
		l0.407-2.373c0.015-0.083-0.013-0.168-0.073-0.227l-1.725-1.681c-0.102-0.099-0.104-0.261-0.005-0.362
		c0.039-0.041,0.091-0.067,0.146-0.075l2.383-0.346c0.083-0.012,0.155-0.065,0.192-0.141l1.066-2.159
		c0.063-0.127,0.216-0.179,0.343-0.116c0.051,0.025,0.092,0.066,0.116,0.116l1.065,2.159c0.038,0.076,0.11,0.128,0.193,0.141
		l2.382,0.346c0.141,0.021,0.237,0.151,0.217,0.291c-0.008,0.056-0.034,0.107-0.074,0.146l-1.724,1.68
		c-0.061,0.059-0.088,0.144-0.074,0.227l0.407,2.373c0.023,0.14-0.07,0.272-0.21,0.296c-0.056,0.01-0.112,0-0.162-0.025l-2.131-1.12
		C25.956,17.501,25.866,17.501,25.792,17.541L25.792,17.541z"/>
</g>
</svg>
