<svg version="1.1" xmlns="http://www.w3.org/2000/svg" xmlns:xlink="http://www.w3.org/1999/xlink" x="0px" y="0px"
	 width="51.469px" height="50.9px" viewBox="0 0 51.469 50.9" enable-background="new 0 0 51.469 50.9" xml:space="preserve">
<g>
	<path fill="currentColor" d="M44.041,14.422H42.7V12.4h-6.742v2.022h-2.695v-3.906c0-1.191-0.97-2.161-2.161-2.161H20.594
		c-1.192,0-2.162,0.969-2.162,2.161v3.906h-2.697V12.4h-6.74v2.022H7.652c-1.118,0-2.029,0.911-2.029,2.029v24.254
		c0,1.121,0.911,2.03,2.029,2.03h3.365h1.348h26.964h1.349h0.674h2.689c1.118,0,2.03-0.909,2.03-2.03V16.451
		C46.07,15.333,45.159,14.422,44.041,14.422z M31.914,14.422H19.779v-3.906c0-0.448,0.365-0.813,0.814-0.813h10.508
		c0.448,0,0.813,0.365,0.813,0.813V14.422z"/>
	<g>
		<path class="no-blue" fill="#FFFDFD" d="M35.927,27.87l-2.195,0.665l1.543,0.589c-1.292,2.021-3.576,3.953-6.486,6.412
			c-0.815,0.69-1.736,1.431-2.64,2.221c-0.125,0.1-0.264,0.15-0.414,0.15s-0.288-0.05-0.414-0.15
			c-0.903-0.791-1.781-1.531-2.597-2.221c-2.911-2.459-5.236-4.391-6.529-6.412l1.619-0.452l-2.271-0.803
			c-0.339-0.803-0.515-1.631-0.515-2.535c0-3.476,2.464-6.085,5.688-6.085c2.534,0,4.166,1.757,5.019,3.338
			c0.854-1.581,2.526-3.338,5.061-3.338c3.225,0,5.646,2.61,5.646,6.085C36.441,26.239,36.266,27.067,35.927,27.87z"/>
		<path fill="currentColor" d="M35.927,27.87c-0.176,0.426-0.389,0.84-0.652,1.254h-4.479c-0.238,0-0.451-0.138-0.564-0.351l-0.689-1.38
			l-1.987,3.889c-0.112,0.213-0.326,0.352-0.564,0.352s-0.451-0.138-0.564-0.352l-0.69-1.38l-0.689,1.38
			c-0.214,0.427-0.916,0.427-1.13,0l-1.944-3.889l-0.69,1.38c-0.113,0.213-0.326,0.352-0.564,0.352h-4.521
			c-0.263-0.414-0.477-0.829-0.652-1.255h4.785l1.079-2.158c0.213-0.426,0.916-0.426,1.129,0l1.945,3.89l0.689-1.38
			c0.113-0.213,0.339-0.326,0.564-0.326c0.227,0,0.452,0.113,0.564,0.326l0.69,1.38l1.986-3.89c0.214-0.426,0.916-0.426,1.13,0
			l1.079,2.158H35.927L35.927,27.87z"/>
		<path fill="currentColor" d="M35.927,27.87c-0.176,0.426-0.389,0.84-0.652,1.254h-4.479c-0.238,0-0.451-0.138-0.564-0.351l-0.689-1.38
			l-1.987,3.889c-0.112,0.213-0.326,0.352-0.564,0.352s-0.451-0.138-0.564-0.352l-0.69-1.38v-2.008c0.227,0,0.452,0.113,0.564,0.326
			l0.69,1.38l1.986-3.89c0.214-0.426,0.916-0.426,1.13,0l1.079,2.158H35.927L35.927,27.87z"/>
	</g>
</g>
</svg>
