<svg version="1.1" xmlns="http://www.w3.org/2000/svg" xmlns:xlink="http://www.w3.org/1999/xlink" x="0px" y="0px"
	 width="51.469px" height="50.9px" viewBox="0 0 51.469 50.9" enable-background="new 0 0 51.469 50.9" xml:space="preserve">
<g>
	<g>
		<path fill="currentColor" d="M49.499,23.466L26.822,3.815c-0.568-0.492-1.411-0.492-1.979,0l-8.084,7.002V7.981
			c0-1.668-1.354-3.023-3.023-3.023c-1.668,0-3.023,1.354-3.023,3.023v8.075l-8.55,7.409c-0.63,0.547-0.699,1.503-0.15,2.135
			c0.548,0.629,1.501,0.695,2.135,0.151L25.828,6.958l21.68,18.793C47.8,26,48.147,26.12,48.501,26.12
			c0.426,0,0.84-0.178,1.14-0.519C50.196,24.969,50.123,24.02,49.499,23.466z"/>
		<g>
			<polygon fill="currentColor" points="27.557,41.079 26.939,40.803 26.657,40.19 26.026,40.43 25.393,40.196 25.116,40.814
				24.502,41.096 24.744,41.728 24.511,42.361 25.127,42.637 25.409,43.25 26.039,43.009 26.675,43.244 26.95,42.626 27.563,42.344 
				27.323,41.713"/>
			<path fill="currentColor" d="M42.86,27.112L27.742,14.717c-0.552-0.457-1.233-0.689-1.914-0.689c-0.68,0-1.359,0.229-1.918,0.689
				L8.796,27.108c-0.701,0.576-1.107,1.43-1.107,2.341v14.813c0,1.667,1.355,3.021,3.023,3.021h3.248h5.823h12.092h3.222h5.847
				c1.667,0,3.023-1.354,3.023-3.021V29.449C43.967,28.536,43.56,27.684,42.86,27.112z M26.047,43.927
				c-1.24,0.008-2.25-0.975-2.255-2.195c-0.006-0.749,0.373-1.413,0.948-1.815l-0.045-8.098c-1.133-0.49-1.933-1.611-1.94-2.925
				c-0.007-1.236,0.688-2.312,1.711-2.853l0.02,3.172l1.481,0.844l1.474-0.862l-0.019-3.171c1.029,0.529,1.735,1.598,1.743,2.835
				c0.007,1.312-0.778,2.443-1.907,2.944l0.046,8.102c0.582,0.396,0.967,1.053,0.973,1.802
				C28.283,42.926,27.285,43.92,26.047,43.927z M31.094,29.786c-0.049,0.281-0.122,0.552-0.213,0.813l0.643,0.728l-0.619,1.086
				l-0.951-0.183c-0.091,0.106-0.186,0.213-0.286,0.311c-0.098,0.104-0.205,0.198-0.313,0.292l0.005-0.002l0.193,0.95l-1.08,0.632
				l-0.648-0.564l-0.011-1.578c1.207-0.661,2.025-1.943,2.018-3.416c-0.013-2.136-1.756-3.859-3.892-3.848
				c-2.137,0.013-3.861,1.755-3.849,3.892c0.009,1.363,0.723,2.556,1.792,3.239l0.013,1.962l-0.385,0.342l-1.085-0.621l0.184-0.95
				c-0.107-0.092-0.213-0.188-0.312-0.289c-0.102-0.099-0.198-0.202-0.293-0.308l-0.949,0.195l-0.63-1.08l0.634-0.732
				c-0.093-0.263-0.171-0.532-0.224-0.813l-0.918-0.308l-0.008-1.251l0.916-0.316c0.048-0.283,0.124-0.553,0.212-0.815l-0.64-0.728
				l0.617-1.084l0.951,0.182l-0.002,0.005c0.093-0.11,0.188-0.216,0.288-0.317c0.098-0.101,0.204-0.196,0.31-0.289l-0.195-0.949
				l1.08-0.631l0.732,0.635c0.263-0.097,0.533-0.171,0.814-0.225l0.306-0.918l1.251-0.008l0.319,0.916
				c0.28,0.05,0.552,0.123,0.813,0.215l0.729-0.645l1.085,0.622l-0.182,0.951l-0.006-0.002c0.107,0.092,0.215,0.187,0.317,0.289
				c0.1,0.098,0.198,0.203,0.289,0.312v-0.004l0.947-0.193l0.632,1.078l-0.634,0.732c0.095,0.263,0.17,0.533,0.225,0.812
				l0.916,0.309l0.009,1.251L31.094,29.786z"/>
		</g>
	</g>
</g>
</svg>
