<svg version="1.1" xmlns="http://www.w3.org/2000/svg" xmlns:xlink="http://www.w3.org/1999/xlink" x="0px" y="0px"
	 width="51.469px" height="50.9px" viewBox="0 0 51.469 50.9" enable-background="new 0 0 51.469 50.9" xml:space="preserve">
<g>
	<path fill="currentColor" d="M27.758,48.533c1.572,0,2.847-1.273,2.847-2.847V23.123l1.271-5.866c0.614,0.462,1.323,0.963,2.12,1.468
		c2.797,1.759,6.641,3.598,10.979,3.611c0.237,0,0.474-0.007,0.708-0.018c1.017-0.046,1.802-0.91,1.754-1.925
		c-0.046-1.017-0.908-1.801-1.925-1.755c-0.185,0.01-0.363,0.013-0.538,0.013c-3.241,0.013-6.547-1.474-9.009-3.04
		c-1.23-0.777-2.248-1.562-2.946-2.145c-0.351-0.291-0.621-0.532-0.801-0.695c-0.091-0.083-0.156-0.146-0.199-0.186
		c-0.021-0.022-0.036-0.037-0.045-0.044c-0.009-0.007-0.009-0.008-0.009-0.007c-0.123-0.122-0.258-0.221-0.401-0.3
		c-0.009-0.005-0.017-0.01-0.025-0.015c-0.012-0.006-0.021-0.012-0.031-0.017c-0.365-0.208-0.798-0.33-1.265-0.33H29.68
		c-0.789,2.164-2.867,3.714-5.303,3.714c-2.433,0-4.513-1.551-5.301-3.714h-0.563c-0.312,0-0.606,0.054-0.877,0.152
		c-0.016,0.004-0.032,0.006-0.049,0.011h-0.001c-0.053,0.018-1.475,0.425-2.998,1.14c-0.766,0.362-1.559,0.791-2.271,1.379
		c-0.355,0.298-0.697,0.638-0.989,1.089c-0.078,0.12-0.152,0.251-0.219,0.393c-0.181,0.378-0.31,0.826-0.31,1.321
		c0,0.303,0.05,0.617,0.146,0.912l0,0l0,0c0.229,0.692,0.671,1.229,1.177,1.657c0.771,0.641,1.736,1.117,3.041,1.586
		c1.304,0.463,2.951,0.896,5.057,1.314c0.12,0.025,0.241,0.035,0.36,0.035c0.859,0,1.629-0.607,1.804-1.484
		c0.197-0.997-0.452-1.967-1.449-2.165c-2.644-0.521-4.422-1.067-5.455-1.535c-0.303-0.135-0.535-0.262-0.708-0.371
		c0.094-0.074,0.206-0.153,0.33-0.231c0.029-0.018,0.062-0.037,0.092-0.055c0.423-0.263,0.955-0.521,1.473-0.742l0.32,1.478
		c0.916,0.297,2.211,0.645,4.038,1.005c0.604,0.12,1.124,0.467,1.466,0.978c0.341,0.511,0.465,1.125,0.345,1.728
		c-0.214,1.074-1.162,1.854-2.255,1.854c-0.151,0-0.303-0.014-0.452-0.044c-0.73-0.145-1.407-0.292-2.041-0.442l0.062,0.288v22.563
		c0,1.573,1.274,2.847,2.847,2.847s2.847-1.273,2.847-2.847V24.902h1.067v20.784C24.911,47.258,26.187,48.533,27.758,48.533z
		 M24.378,16.719c0.445,0,0.806,0.362,0.806,0.806c0,0.444-0.361,0.805-0.806,0.805c-0.445,0-0.806-0.36-0.806-0.805
		C23.572,17.081,23.933,16.719,24.378,16.719z M24.378,21.497c-0.445,0-0.806-0.361-0.806-0.807c0-0.443,0.36-0.804,0.806-0.804
		s0.806,0.361,0.806,0.804C25.184,21.136,24.822,21.497,24.378,21.497z"/>
	<path fill="currentColor" d="M24.376,15.127c2.861,0,5.182-2.319,5.182-5.181c0-0.632-0.113-1.239-0.32-1.799
		c-0.642,0.356-2.689,1.395-4.861,1.395c-2.17,0-4.219-1.039-4.858-1.395c-0.208,0.56-0.321,1.166-0.321,1.799
		C19.197,12.808,21.516,15.127,24.376,15.127z"/>
	<path fill="currentColor" d="M19.926,7.854c0,0,1.919,1.113,4.45,1.113c2.533,0,4.452-1.113,4.452-1.113V3.868
		c-0.735,0.402-2.451,0.687-4.452,0.687c-1.999,0-3.714-0.283-4.45-0.687V7.854z"/>
	<ellipse fill="currentColor" cx="24.376" cy="3.288" rx="4.511" ry="0.921"/>
</g>
</svg>
