<svg version="1.1" xmlns="http://www.w3.org/2000/svg" xmlns:xlink="http://www.w3.org/1999/xlink" x="0px" y="0px"
	 width="51.469px" height="50.9px" viewBox="0 0 51.469 50.9" enable-background="new 0 0 51.469 50.9" xml:space="preserve">
<g>
	<g>
		<g>
			<path fill="currentColor" d="M35.311,2.926H14.075c-2.972,0-5.39,2.417-5.39,5.39V41.71c0,2.972,2.418,5.39,5.39,5.39h21.235
				c2.972,0,5.39-2.418,5.39-5.39V8.315C40.7,5.343,38.282,2.926,35.311,2.926z M24.693,42.952c-4.314,0-7.824-3.51-7.824-7.824
				c0-4.314,3.51-7.824,7.824-7.824c4.313,0,7.824,3.51,7.824,7.824C32.518,39.441,29.007,42.952,24.693,42.952z M36.193,21.613
				c0,0.919-0.748,1.667-1.667,1.667H14.859l0,0c-0.919,0-1.667-0.748-1.667-1.667V9.728c0-0.919,0.748-1.667,1.667-1.667h19.667
				c0.919,0,1.667,0.748,1.667,1.667V21.613z"/>
		</g>
	</g>
	<g>
		<g>
			<path fill="currentColor" d="M24.668,31.107c-2.216,0-4.02,1.803-4.02,4.02c0,2.216,1.804,4.02,4.02,4.02
				c2.217,0,4.021-1.804,4.021-4.02C28.688,32.911,26.885,31.107,24.668,31.107z"/>
		</g>
	</g>
</g>
</svg>
