<?xml version="1.0" encoding="utf-8"?>
<!-- Generator: Adobe Illustrator 16.0.0, SVG Export Plug-In . SVG Version: 6.00 Build 0)  -->
<!DOCTYPE svg PUBLIC "-//W3C//DTD SVG 1.1//EN" "http://www.w3.org/Graphics/SVG/1.1/DTD/svg11.dtd">
<svg version="1.1" id="Layer_1" xmlns="http://www.w3.org/2000/svg" xmlns:xlink="http://www.w3.org/1999/xlink" x="0px" y="0px"
	 width="51.469px" height="50.9px" viewBox="0 0 51.469 50.9" enable-background="new 0 0 51.469 50.9" xml:space="preserve">
<g>
	<path fill="#898A8C" d="M14.311,32.097H13.96h-0.933l-2.217,3.85l-2.101-3.85H7.776h-0.35c-1.517,0-2.8,1.284-2.8,2.8v7.7H17.11
		v-7.7C17.11,33.381,15.827,32.097,14.311,32.097z M10.811,18.914c0.933-4.317,4.316-7.583,8.633-8.517
		c0.817-0.233,1.051,1.05,0.234,1.167c-3.734,0.817-6.65,3.617-7.584,7.233l1.166-0.933c0.584-0.467,1.401,0.467,0.817,1.05
		l-2.917,2.333l-2.333-2.917c-0.584-0.583,0.467-1.4,0.933-0.817L10.811,18.914z M41.494,18.797
		c-0.934-3.617-3.851-6.417-7.584-7.233c-0.816-0.116-0.467-1.4,0.351-1.167c4.2,0.933,7.584,4.2,8.517,8.517l1.051-1.4
		c0.582-0.583,1.517,0.233,1.05,0.817l-2.45,2.917l-2.917-2.333c-0.584-0.583,0.233-1.517,0.817-1.05L41.494,18.797z M27.261,16.347
		l0.233,1.75l-0.7,1.167l-0.583-1.167l0.116-1.75c-0.816-0.934-0.7-1.75,0.467-1.75C28.077,14.597,28.194,15.414,27.261,16.347z
		 M26.794,6.43c1.983,0,3.616,1.633,3.616,3.617c0,1.867-1.633,3.5-3.616,3.5s-3.5-1.633-3.5-3.5
		C23.294,8.063,24.811,6.43,26.794,6.43z M23.41,15.18h0.351l3.033,5.367l3.033-5.367h0.467c1.517,0,2.8,1.284,2.8,2.8v7.7H20.61
		v-7.7C20.61,16.464,21.894,15.18,23.41,15.18z M39.277,32.097h0.467h0.816l2.217,3.85l2.217-3.85h0.817h0.35
		c1.517,0,2.8,1.284,2.8,2.8v7.7H36.478v-7.7C36.478,33.381,37.761,32.097,39.277,32.097z M42.777,23.814
		c1.983,0,3.5,1.633,3.5,3.617s-1.517,3.617-3.5,3.617s-3.616-1.633-3.616-3.617S40.794,23.814,42.777,23.814z M10.811,23.814
		c-1.867,0-3.5,1.633-3.5,3.617s1.633,3.617,3.5,3.617c1.983,0,3.616-1.633,3.616-3.617S12.794,23.814,10.811,23.814z"/>
</g>
</svg>
