<svg version="1.1" xmlns="http://www.w3.org/2000/svg" xmlns:xlink="http://www.w3.org/1999/xlink" x="0px" y="0px"
	 width="51.469px" height="50.9px" viewBox="0 0 51.469 50.9" enable-background="new 0 0 51.469 50.9" xml:space="preserve">
<g>
	<path fill="currentColor" d="M39.848,7.752l2.755-2.756c0.539-0.538,1.41-0.538,1.949,0c0.538,0.539,0.538,1.41,0,1.949L41.796,9.7
		c-0.538,0.539-1.41,0.539-1.948,0C39.309,9.162,39.31,8.291,39.848,7.752z"/>
	<path fill="currentColor" d="M33.934,3.215c0-0.761,0.616-1.377,1.377-1.377c0.762,0,1.378,0.616,1.378,1.377v2.755
		c0,0.762-0.616,1.378-1.378,1.378c-0.761,0-1.377-0.616-1.377-1.378V3.215z"/>
	<path fill="currentColor" d="M11.328,42.002l-3.896-3.896c-1.618-1.619-1.611-4.234,0-5.846l6.82-6.819l9.741,9.742l-6.819,6.819
		C15.556,43.62,12.939,43.614,11.328,42.002z"/>
	<path fill="currentColor" d="M31.216,44.16c1.074,1.075,1.074,2.823,0,3.897c-1.077,1.077-2.828,1.071-3.896,0.001l-6.25-6.057
		l3.896-3.896l2.799,2.712l1.905-1.905c0.541-0.543,0.537-1.413,0-1.947l-1.662-1.665c0.714-0.6,1.449-1.161,2.218-1.678
		l1.393,1.393c1.612,1.61,1.618,4.226,0,5.845l-1.874,1.874L31.216,44.16z"/>
	<path fill="currentColor" d="M39.227,26.758c-4.865,0.974-9.422,3.4-13.166,6.596l-9.979-9.979c3.196-3.745,5.56-8.366,6.531-13.23
		l0.139-0.692L39.92,26.62L39.227,26.758z"/>
	<path fill="currentColor" d="M46.352,25.259c-1.075,1.075-2.822,1.075-3.896,0L24.111,6.917c-1.073-1.075-1.073-2.823,0-3.899
		c1.068-1.065,2.817-1.078,3.899,0.001l18.341,18.343C47.429,22.44,47.429,24.181,46.352,25.259z"/>
	<path fill="currentColor" d="M46.333,15.614h-2.756c-0.761,0-1.377-0.616-1.377-1.377c0-0.762,0.616-1.378,1.377-1.378h2.756
		c0.762,0,1.378,0.616,1.378,1.378C47.711,14.999,47.095,15.614,46.333,15.614z"/>
</g>
</svg>
