<svg version="1.1" xmlns="http://www.w3.org/2000/svg" xmlns:xlink="http://www.w3.org/1999/xlink" x="0px" y="0px"
	 width="51.469px" height="50.9px" viewBox="0 0 51.469 50.9" enable-background="new 0 0 51.469 50.9" xml:space="preserve">
<g>
	<path fill="currentColor" d="M25.407,1.143C19.555,1.118,14.688,7.4,14.656,15.164c-0.025,5.627,2.43,10.477,6.022,12.744
		c1.515,0.962,2.353,2.599,2.344,4.286c-0.014,3.377,0.091,5.403-1.628,12.485c-0.63,2.417,0.991,5.069,3.466,5.079
		c2.251,0.01,4.118-2.401,3.456-5.105c-1.604-6.59-1.537-9.348-1.524-12.048c0.008-1.913,1.028-3.598,2.663-4.435
		c3.835-2.121,6.501-7.118,6.526-12.969C36.071,7.491,31.316,1.112,25.407,1.143z M24.871,47.283
		c-0.787-0.004-1.458-0.907-1.396-1.976c0.004-1.125,0.627-1.967,1.414-1.964c0.788,0.003,1.46,0.907,1.398,1.976
		C26.282,46.445,25.66,47.286,24.871,47.283z M25.299,26.352c-4.051-0.017-7.52-5.096-7.493-11.173s3.537-11.126,7.588-11.109
		c4.052,0.018,7.519,5.098,7.493,11.174C32.861,21.319,29.351,26.369,25.299,26.352z"/>
	<g>
		<rect x="22.938" y="11.015" fill="currentColor" width="7.241" height="0.477"/>
		
			<rect x="20.441" y="12.146" transform="matrix(1 0.0042 -0.0042 1 0.0516 -0.0955)" fill="currentColor" width="5.173" height="0.477"/>
	</g>
	<g>
		<rect x="22.938" y="11.015" fill="currentColor" width="7.241" height="0.477"/>
		
			<rect x="20.441" y="12.146" transform="matrix(1 0.0042 -0.0042 1 0.0516 -0.0955)" fill="currentColor" width="5.173" height="0.477"/>
	</g>
	<g>
		<rect x="20.736" y="18.691" fill="currentColor" width="7.242" height="0.478"/>
		
			<rect x="25.344" y="17.612" transform="matrix(-1 -0.0043 0.0043 -1 55.7836 35.8223)" fill="currentColor" width="5.173" height="0.478"/>
	</g>
	<g>
		<rect x="20.736" y="18.691" fill="currentColor" width="7.242" height="0.478"/>
		
			<rect x="25.344" y="17.612" transform="matrix(-1 -0.0043 0.0043 -1 55.7836 35.8223)" fill="currentColor" width="5.173" height="0.478"/>
	</g>
</g>
</svg>
