<?xml version="1.0" encoding="utf-8"?>
<!-- Generator: Adobe Illustrator 16.0.0, SVG Export Plug-In . SVG Version: 6.00 Build 0)  -->
<!DOCTYPE svg PUBLIC "-//W3C//DTD SVG 1.1//EN" "http://www.w3.org/Graphics/SVG/1.1/DTD/svg11.dtd">
<svg version="1.1" id="Layer_1" xmlns="http://www.w3.org/2000/svg" xmlns:xlink="http://www.w3.org/1999/xlink" x="0px" y="0px"
	 width="51.469px" height="50.9px" viewBox="0 0 51.469 50.9" enable-background="new 0 0 51.469 50.9" xml:space="preserve">
<g id="Money_with_wings">
	<path fill="#898A8C" d="M25.563,22.299c0.346,0,0.787,0.442,0.787,0.788c0,0.436,0.354,0.788,0.788,0.788
		c0.435,0,0.787-0.353,0.787-0.788c0-0.944-0.695-1.842-1.575-2.197v-0.955c0-0.436-0.354-0.788-0.788-0.788
		c-0.434,0-0.787,0.352-0.787,0.788v0.955c-0.88,0.355-1.577,1.253-1.577,2.197c0,1.184,1.006,1.938,1.894,2.604
		c0.59,0.442,1.259,0.943,1.259,1.335c0,0.347-0.441,0.789-0.787,0.789c-0.354,0-0.788-0.435-0.788-0.789
		c0-0.436-0.353-0.788-0.788-0.788c-0.435,0-0.787,0.353-0.787,0.788c0,0.944,0.696,1.841,1.576,2.198v0.955
		c0,0.436,0.354,0.788,0.787,0.788c0.435,0,0.789-0.353,0.789-0.788v-0.955c0.88-0.356,1.574-1.253,1.574-2.198
		c0-1.182-1.002-1.934-1.889-2.597c-0.592-0.443-1.262-0.946-1.262-1.342C24.774,22.735,25.209,22.299,25.563,22.299z"/>
	<path fill="#898A8C" d="M49.99,18.359c0-0.436-0.354-0.788-0.788-0.788H35.807c-1.287,0-2.519,0.456-3.499,1.264
		c-1.718-1.75-4.104-2.84-6.745-2.84c-2.635,0-5.021,1.086-6.737,2.832c-0.978-0.802-2.209-1.256-3.491-1.256H1.938
		c-0.436,0-0.788,0.353-0.788,0.788c0,1.543,0.638,2.938,1.662,3.94H2.727c-0.436,0-0.789,0.353-0.789,0.787
		c0,1.543,0.639,2.938,1.662,3.939H3.514c-0.435,0-0.787,0.353-0.787,0.789c0,3.041,2.473,5.515,5.515,5.515h7.093
		c1.282,0,2.513-0.453,3.491-1.256c1.716,1.745,4.103,2.831,6.737,2.831c2.641,0,5.027-1.089,6.745-2.839
		c0.98,0.807,2.214,1.264,3.499,1.264h7.092c3.042,0,5.516-2.476,5.516-5.516c0-0.436-0.354-0.789-0.788-0.789h-0.087
		c1.024-1,1.662-2.396,1.662-3.939c0-0.436-0.353-0.788-0.787-0.788h-0.088C49.351,21.298,49.99,19.902,49.99,18.359z
		 M15.334,31.755H8.241c-1.902,0-3.494-1.356-3.859-3.151h8.588c0.435,0,0.787-0.353,0.787-0.788s-0.353-0.789-0.787-0.789H7.453
		c-1.902,0-3.494-1.356-3.86-3.15h8.589c0.436,0,0.788-0.354,0.788-0.789S12.617,22.3,12.182,22.3H6.666
		c-1.903,0-3.495-1.355-3.86-3.151h12.528c0.914,0,1.789,0.321,2.486,0.891c-1.076,1.535-1.714,3.4-1.714,5.413
		c0,2.013,0.638,3.878,1.714,5.413C17.123,31.434,16.248,31.755,15.334,31.755z M25.563,33.333c-4.345,0-7.88-3.536-7.88-7.881
		s3.535-7.88,7.88-7.88s7.88,3.535,7.88,7.88S29.907,33.333,25.563,33.333z M44.475,22.299h-5.517c-0.435,0-0.788,0.353-0.788,0.788
		s0.354,0.788,0.788,0.788h8.588c-0.365,1.795-1.957,3.151-3.859,3.151H38.17c-0.436,0-0.788,0.354-0.788,0.789
		c0,0.435,0.354,0.788,0.788,0.788h8.589c-0.366,1.795-1.958,3.152-3.86,3.152h-7.092c-0.918,0-1.796-0.325-2.496-0.899
		c1.073-1.534,1.708-3.394,1.708-5.405c0-2.01-0.635-3.871-1.708-5.405c0.7-0.574,1.579-0.898,2.496-0.898h12.527
		C47.969,20.943,46.377,22.299,44.475,22.299z"/>
</g>
</svg>
