<svg version="1.1" xmlns="http://www.w3.org/2000/svg" xmlns:xlink="http://www.w3.org/1999/xlink" x="0px" y="0px"
	 width="51.469px" height="50.9px" viewBox="0 0 51.469 50.9" enable-background="new 0 0 51.469 50.9" xml:space="preserve">
<g>
	<path fill="currentColor" d="M38.458,30.963c-0.188,0.657-0.281,1.407-0.563,2.158c2.064,0,4.036-1.501,4.13-3.848
		c0-3.284-0.657-6.192-1.877-8.634C39.866,23.736,39.303,27.303,38.458,30.963z"/>
	<path fill="currentColor" d="M28.979,28.804c0.376-1.406,0.657-2.816,1.034-4.129c-0.095-0.375-0.188-0.844-0.188-1.22
		c0-1.315,0.657-2.535,1.595-3.285c0.281-0.751,0.563-1.502,0.845-2.158l0.281-0.658c0-0.093,0-0.093,0-0.188l0.47-2.159
		l-0.376-0.093l-0.188-0.469c-0.187-0.563-0.374-1.221-0.469-1.783c-2.628-1.313-5.537-1.877-8.539-1.784
		c-8.823,0.375-16.144,7.508-16.8,16.33C6.08,34.342,9.833,40.724,15.56,43.914c2.252,1.314,5.066-0.375,5.161-3.002
		c0-4.411,3.284-8.542,7.695-9.573C28.604,30.493,28.792,29.648,28.979,28.804z M14.809,20.357c0.751,0,1.406,0.188,1.97,0.564
		c0,0.093,1.596,0.844,1.596,3.002c0,1.971-1.596,3.565-3.565,3.565c-1.222,0-2.348-0.657-2.91-1.594l0,0
		c-0.376-0.563-0.563-1.221-0.563-1.971C11.242,21.952,12.837,20.357,14.809,20.357z M15.184,37.72c-1.22,0-2.346-0.657-2.91-1.596
		l0,0c-0.374-0.563-0.563-1.221-0.563-1.971c0-1.97,1.595-3.564,3.566-3.564c0.751,0,1.407,0.187,1.971,0.563
		c0,0.093,1.596,0.845,1.596,3.003C18.655,36.124,17.061,37.72,15.184,37.72z M23.348,20.921c-2.158,0-2.909-1.596-3.003-1.596
		c-0.375-0.563-0.563-1.221-0.563-1.971c0-2.816,3.098-4.505,5.537-3.003l0,0C28.229,16.322,26.819,20.921,23.348,20.921z"/>
	<path fill="currentColor" d="M39.208,19.7l-5.724-1.313h-0.094c-0.094,0-0.094,0-0.188-0.095c-1.22,2.909-2.346,6.664-3.284,10.7
		c-1.783,7.507-2.252,14.265-1.408,17.269c0.188,0.938,0.658,1.594,1.126,1.688c2.16,0.469,5.726-7.226,7.978-17.173
		C38.458,26.645,39.115,22.89,39.208,19.7L39.208,19.7z"/>
	<path fill="currentColor" d="M40.147,2.996c-0.095,0.093-0.188,0.187-0.281,0.281c-2.44,3.847-6.006,4.223-6.569,6.852
		c-0.282,1.313-0.282,2.721,0.188,3.94l4.035,0.939l3.472,0.751c0.939-0.846,1.503-2.159,1.784-3.473
		C43.339,9.846,41.555,2.151,40.147,2.996z"/>
	<path fill="currentColor" d="M33.671,17.449l5.632,1.313c0.093,0,0.093,0,0.093-0.094l0.563-2.252l-2.721-0.657l-3.285-0.657
		l-0.469,2.252c0,0.094,0,0.094,0.094,0.094H33.671L33.671,17.449z"/>
</g>
</svg>
