<svg version="1.1" xmlns="http://www.w3.org/2000/svg" xmlns:xlink="http://www.w3.org/1999/xlink" x="0px" y="0px"
	 width="51.469px" height="50.9px" viewBox="0 0 51.469 50.9" enable-background="new 0 0 51.469 50.9" xml:space="preserve">
<g>
	<path fill="currentColor" d="M22.087,39.587c-0.833-0.603-1.319-1.215-1.488-1.87c-0.631-2.447-2.665-4.232-4.949-4.232
		c-2.282,0-4.394,1.786-5.023,4.233c-0.171,0.653-0.656,1.266-1.489,1.871c-1.015,0.737-1.478,1.875-1.21,2.976
		c0.321,1.322,1.784,2.498,3.784,2.498c0.847,0,1.65-0.218,2.322-0.629c0.447-0.274,1.056-0.42,1.615-0.42
		c0.558,0,1.089,0.145,1.541,0.419c0.675,0.414,1.474,0.633,2.313,0.633c2,0,3.474-1.169,3.796-2.5
		C23.563,41.466,23.099,40.324,22.087,39.587z"/>
	<path fill="currentColor" d="M9.851,33.486c0-1.33-1.047-3.447-2.287-3.447c-1.242,0-2.289,2.117-2.289,3.447
		c0,1.267,1.027,2.297,2.289,2.297C8.824,35.783,9.851,34.752,9.851,33.486z"/>
	<path fill="currentColor" d="M23.661,30.039c-1.242,0-2.289,2.118-2.289,3.447c0,1.268,1.027,2.297,2.289,2.297
		c1.261,0,2.288-1.031,2.288-2.297C25.947,32.156,24.902,30.039,23.661,30.039z"/>
	<path fill="currentColor" d="M16.794,28.89c0,1.268,1.027,2.299,2.289,2.299c1.261,0,2.288-1.032,2.288-2.299
		c0-1.33-1.047-3.446-2.288-3.446C17.841,25.442,16.794,27.56,16.794,28.89z"/>
	<path fill="currentColor" d="M12.14,31.188c1.262,0,2.288-1.032,2.288-2.299c0-1.33-1.047-3.446-2.288-3.446
		c-1.24,0-2.289,2.116-2.289,3.446C9.851,30.156,10.878,31.188,12.14,31.188z"/>
	<path fill="currentColor" d="M40.472,19.979c-0.832-0.604-1.317-1.292-1.489-1.948c-0.629-2.445-2.74-4.155-5.022-4.155
		c-2.285,0-4.318,1.709-4.95,4.157c-0.169,0.654-0.656,1.342-1.487,1.947c-1.015,0.737-1.478,1.876-1.21,2.977
		c0.321,1.323,1.783,2.499,3.784,2.499c0.847,0,1.649-0.216,2.322-0.629c0.447-0.275,0.979-0.421,1.537-0.421
		s1.166,0.146,1.619,0.42c0.675,0.414,1.475,0.633,2.312,0.633c2.001,0,3.473-1.17,3.797-2.501
		C41.949,21.856,41.484,20.716,40.472,19.979z"/>
	<path fill="currentColor" d="M28.237,13.875c0-1.33-1.048-3.447-2.29-3.447s-2.287,2.118-2.287,3.447c0,1.267,1.025,2.299,2.287,2.299
		C27.211,16.174,28.237,15.144,28.237,13.875z"/>
	<path fill="currentColor" d="M42.045,10.429c-1.242,0-2.289,2.118-2.289,3.447c0,1.267,1.028,2.299,2.289,2.299
		c1.262,0,2.289-1.032,2.289-2.299C44.334,12.547,43.287,10.429,42.045,10.429z"/>
	<path fill="currentColor" d="M35.18,9.279c0,1.268,1.027,2.299,2.288,2.299c1.262,0,2.29-1.031,2.29-2.299
		c0-1.329-1.047-3.446-2.29-3.446C36.226,5.833,35.18,7.951,35.18,9.279z"/>
	<path fill="currentColor" d="M28.237,9.279c0,1.268,1.027,2.299,2.288,2.299c1.262,0,2.289-1.031,2.289-2.299
		c0-1.329-1.048-3.446-2.289-3.446C29.283,5.833,28.237,7.951,28.237,9.279z"/>
</g>
</svg>
