<svg version="1.1" xmlns="http://www.w3.org/2000/svg" xmlns:xlink="http://www.w3.org/1999/xlink" x="0px" y="0px"
	 width="51.469px" height="50.9px" viewBox="0 0 51.469 50.9" enable-background="new 0 0 51.469 50.9" xml:space="preserve">
<path fill="currentColor" d="M49.371,25.139C49.371,25.139,49.371,25.139,49.371,25.139
	c-0.463-0.44-0.926-0.88-1.389-1.32v0c-0.535-0.72-1.167-1.342-1.899-1.861l0,0c-0.045-0.048-0.089-0.096-0.134-0.145l0,0
	c-0.405-0.598-0.972-1.049-1.445-1.585l0,0l0,0c0.025-1.763,0.08-3.529-0.707-5.18c-0.428-1.11-0.815-2.24-1.575-3.185
	c-0.001,0,0,0-0.001-0.001c-0.577-1.052-1.376-1.916-2.229-2.751c-0.82-0.803-1.762-1.43-2.688-2.085l0,0
	c-2.377-1.493-4.989-2.084-7.77-2.033c-0.842,0.016-1.123,0.26-1.136,1.02c-0.014,0.777,0.318,1.101,1.118,1.145
	c1.033,0.056,2.051,0.001,3.102,0.233c1.827,0.404,3.435,1.161,4.938,2.221c1.885,1.328,3.235,3.132,4.087,5.209
	c0.703,1.714,1.033,3.588,0.973,5.48c-0.016,0.485,0.086,0.914,0.413,1.249c0.713,0.73,1.455,1.432,2.186,2.145
	c0.846,0.869,1.692,1.737,2.535,2.609c0.161,0.167,0.407,0.317,0.294,0.599c-0.122,0.301-0.383,0.392-0.7,0.388
	c-0.885-0.01-1.77-0.004-2.654-0.003c-0.99,0.001-1.341,0.344-1.342,1.317c-0.002,2.012-0.026,4.023,0.01,6.034
	c0.02,1.118-0.896,2.175-2.139,2.149c-1.458-0.031-2.918-0.01-4.376-0.006c-1.049,0.003-1.536,0.486-1.537,1.513
	c-0.001,0.91-0.025,1.821,0.009,2.729c0.02,0.503-0.148,0.66-0.652,0.655c-2.271-0.023-4.543-0.032-6.814,0.004
	c-0.629,0.01-0.748-0.22-0.74-0.788c0.027-2.25,0.008-4.501,0.014-6.752c0.001-0.441-0.061-0.859-0.329-1.22
	c-1.091-1.466-2.098-1.691-3.705-1.014c-0.962,0.405-2.303-0.035-2.777-0.963c-0.57-1.116-0.15-1.99,0.634-2.788c0,0,0,0,0,0l0,0
	c0.608-0.513,1.339-0.216,2.012-0.303l0,0l0,0c1.171,0.413,2.321,0.652,3.317-0.399c0.199-0.153,0.399-0.306,0.433-0.583v0
	c0.289-0.177,0.301-0.452,0.26-0.745l0,0v0c0.004-1.458-0.002-2.917,0.014-4.375c0.008-0.765,0.47-1.091,1.179-0.832
	c0.318,0.117,0.629,0.222,0.971,0.189c1.199,0.367,2.279,0.07,3.295-0.588l0,0l0,0c0.443-0.067,0.672-0.38,0.854-0.746h-0.001h0.001
	c0.009-0.082,0.018-0.164,0.027-0.246c0.231-0.02,0.305-0.205,0.388-0.377c0.774-1.587,0.613-3.09-0.405-4.516
	c-0.257-0.477-0.71-0.731-1.143-1.008c-0.303-0.173-0.608-0.337-0.973-0.33c-0.02,0.023-0.039,0.046-0.06,0.068
	c-0.002,0-0.004,0-0.006,0c0.024-0.018,0.048-0.037,0.065-0.068c-0.281-0.211-0.605-0.235-0.945-0.264
	c-0.711-0.061-1.375,0.173-2.033,0.342c-0.529,0.137-0.87,0.023-1.192-0.353l0,0c-0.002-2.272-0.001-4.545-0.01-6.817
	c-0.003-0.764-0.288-1.099-1.01-1.081c-2.001,0.047-4.01-0.174-6.003,0.16c-1.701,0.285-3.326,0.786-4.809,1.692
	c0.018,0.032,0.041,0.057,0.068,0.075c-0.002,0-0.004,0.001-0.007,0.001l0,0c-0.021-0.026-0.041-0.051-0.062-0.077
	c-2.165,1.158-3.899,2.773-5.166,4.884c-0.556,0.763-1.071,1.547-1.299,2.482l0,0c-0.183,0.196-0.269,0.433-0.286,0.697l0.052,0.041
	c0,0.003,0,0.006,0,0.009c-0.018-0.016-0.034-0.033-0.052-0.049c-0.733,1.619-0.753,3.335-0.688,5.063
	c-0.006,0.046-0.004,0.091,0.006,0.136c-0.508,0.505-1.046,0.983-1.462,1.573l0,0c-0.284,0.288-0.568,0.575-0.853,0.863
	c-0.953,0.721-1.689,1.673-2.595,2.445l0,0l0,0c-0.584,0.499-0.931,1.182-0.782,1.892c0.217,1.037,0.799,1.876,1.918,2.214
	c0.442,0.134,0.873,0.215,1.333,0.212c1.562-0.009,1.562-0.003,1.562,1.59c0,1.246,0.002,2.492-0.002,3.738
	c-0.001,0.411,0.02,0.812,0.293,1.151c0.341,0.821,0.694,1.631,1.566,2.044c0.364,0.369,0.834,0.532,1.312,0.683
	c0.234,0.313,0.576,0.296,0.912,0.296c1.053,0,2.107,0.029,3.158-0.012c0.555-0.021,0.697,0.179,0.677,0.703
	c-0.037,0.957-0.022,1.917-0.006,2.875c0.013,0.683,0.414,1.178,0.996,1.182c2.394,0.017,4.787,0.015,7.18,0
	c0.565-0.003,0.864-0.34,0.885-0.914c0.023-0.656-0.42-1.086-1.198-1.097c-1.22-0.017-2.441,0.017-3.661-0.013
	c-0.707-0.017-1.613,0.318-2.065-0.16c-0.414-0.438-0.127-1.329-0.117-2.017c0.035-2.277,0.108-2.59-2.603-2.596
	c-1.688-0.003-3.489,0.521-5.028-0.684c-0.447-0.526-0.535-1.161-0.537-1.815c-0.005-1.892,0.004-3.783-0.004-5.674
	c-0.004-0.927-0.212-1.13-1.151-1.145c-0.765-0.011-1.53,0.003-2.296-0.004c-0.474-0.004-0.985,0.055-1.214-0.522
	c-0.215-0.544,0.175-0.839,0.492-1.159c1.55-1.556,3.1-3.113,4.655-4.665c0.211-0.211,0.383-0.423,0.361-0.742
	c-0.11-1.687,0.122-3.334,0.581-4.954c0.102-0.213,0.212-0.423,0.304-0.641c0.502-1.188,1.097-2.318,1.964-3.286l0,0l0,0v0
	c0.084-0.053,0.161-0.108,0.196-0.181c0.707-0.65,1.415-1.301,2.122-1.952v0c1.224-0.672,2.41-1.417,3.74-1.876l0,0
	c0.169-0.113,0.357-0.16,0.56-0.155c0.366,0.006,0.735,0.027,1.02-0.273l0,0c1.519-0.132,3.039-0.152,4.563-0.158
	c0.571-0.002,0.736,0.192,0.729,0.748c-0.027,1.813-0.003,3.626-0.01,5.439c-0.002,0.618,0.205,1.107,0.757,1.421
	c0.816,0.637,1.653,0.863,2.709,0.496c1.011-0.352,2.103-0.476,3.009,0.389c0.921,1.248,0.922,2.167,0.005,3.442
	c-0.049,0.047-0.097,0.095-0.146,0.143c-1.06,0.398-2.107,0.419-3.181,0.006c-1.452-0.56-3.301,0.942-3.178,2.437
	c0.113,1.377,0.021,2.772,0.02,4.16c-0.261,0.503-0.653,0.617-1.183,0.445c-0.448-0.145-0.907-0.287-1.372-0.341
	c-1.086-0.127-2.089,0.08-2.888,0.904c-0.036,0.019-0.075,0.028-0.115,0.027l0,0c-0.4-0.015-0.584,0.305-0.778,0.555
	c-1.037,1.332-1.294,2.822-0.61,4.363c0.303,0.684,0.69,1.421,1.526,1.681c0.281,0.146,0.563,0.293,0.844,0.439h0.001
	c-0.001,0-0.001,0-0.001,0c1.061,0.49,2.142,0.335,3.199,0.036c1.077-0.306,1.386-0.107,1.386,1.034
	c0.001,2.58-0.003,5.159,0.005,7.739c0.001,0.339-0.094,0.76,0.441,0.827c0.236,0.134,0.493,0.161,0.761,0.161
	c3.225-0.003,6.45-0.003,9.675,0c0.342,0,0.671-0.015,0.912-0.306c0.311-0.234,0.298-0.575,0.298-0.91
	c0.001-0.957,0.022-1.915-0.009-2.871c-0.017-0.513,0.188-0.674,0.673-0.666c1.075,0.02,2.151,0.024,3.226,0
	c0.9-0.02,1.749-0.228,2.436-0.869l0,0l0,0c0.24-0.141,0.434-0.329,0.569-0.575l0,0c0.448-0.384,0.642-0.918,0.854-1.442l0,0l0,0
	c0.272-0.337,0.294-0.737,0.293-1.146c-0.004-1.241-0.002-2.482-0.002-3.724c0-1.611,0-1.618,1.602-1.611
	c1.056,0.004,1.955-0.315,2.646-1.153C50.451,27.272,50.354,25.919,49.371,25.139z"/>
</svg>
