<svg version="1.1" xmlns="http://www.w3.org/2000/svg" xmlns:xlink="http://www.w3.org/1999/xlink" x="0px" y="0px"
	 width="51.469px" height="50.9px" viewBox="0 0 51.469 50.9" enable-background="new 0 0 51.469 50.9" xml:space="preserve">
<g>
	<path fill="currentColor" d="M14.191,8.758l2.245,2.29c1.878-1.191,3.985-2.062,6.229-2.474l0.046-3.206c0-0.778,0.642-1.42,1.42-1.375
		l3.848,0.046c0.778,0,1.42,0.642,1.374,1.42l-0.046,3.207c2.243,0.458,4.306,1.375,6.139,2.656l2.289-2.244
		c0.551-0.55,1.466-0.55,2.016,0.045l2.702,2.749c0.551,0.549,0.551,1.465-0.045,2.015l-2.291,2.245
		c1.192,1.878,2.063,3.984,2.474,6.229l3.207,0.045c0.778,0,1.42,0.642,1.374,1.42l-0.046,3.847c0,0.779-0.642,1.42-1.42,1.374
		L42.5,29.003c-0.275,1.329-0.733,2.611-1.283,3.803l-3.665-3.665c0.366-1.099,0.551-2.291,0.551-3.527
		c0.137-6.826-5.36-12.46-12.185-12.551c-6.825-0.137-12.46,5.36-12.551,12.185c-0.138,6.825,5.359,12.46,12.184,12.551
		c1.191,0,2.336-0.137,3.39-0.413l3.71,3.711c-1.236,0.549-2.519,0.961-3.847,1.191l-0.047,3.206c0,0.778-0.641,1.42-1.42,1.374
		l-3.848-0.046c-0.778,0-1.42-0.641-1.374-1.42l0.046-3.207c-2.244-0.458-4.306-1.374-6.138-2.657l-2.291,2.245
		c-0.549,0.549-1.465,0.549-2.015-0.046l-2.703-2.748c-0.55-0.55-0.55-1.467,0.046-2.015l2.29-2.245
		c-1.19-1.878-2.062-3.984-2.474-6.229l-3.205-0.044c-0.778,0-1.42-0.642-1.374-1.42l0.046-3.847c0-0.779,0.642-1.42,1.42-1.375
		l3.207,0.045c0.457-2.244,1.374-4.306,2.656-6.138l-2.244-2.29c-0.55-0.55-0.55-1.466,0.046-2.016l2.748-2.703
		C12.726,8.162,13.643,8.162,14.191,8.758z M17.627,23.462c-0.687,2.794,0.046,5.818,2.199,8.017
		c1.786,1.786,4.169,2.61,6.505,2.427c1.374-0.091,2.702,0.367,3.664,1.329l7.283,7.283c0.505,0.504,1.283,0.504,1.786,0
		l0.963-0.962l-8.658-8.657c-0.412-0.413-0.457-1.053-0.137-1.466c0.412-0.504,1.146-0.504,1.603-0.092l8.704,8.704l0.962-0.962
		c0.504-0.504,0.504-1.283,0-1.787l-6.963-6.962c-1.008-1.008-1.513-2.475-1.374-3.894c0.275-2.474-0.504-5.038-2.382-6.917
		c-2.291-2.291-5.59-2.978-8.521-2.061c-0.184,0.045-0.229,0.32-0.091,0.457l3.572,3.572c1.007,1.008,1.007,2.703,0,3.711
		l-1.558,1.557c-1.008,1.008-2.702,1.008-3.71,0l-3.39-3.389C17.948,23.188,17.674,23.279,17.627,23.462z"/>
</g>
</svg>
