<svg version="1.1" xmlns="http://www.w3.org/2000/svg" xmlns:xlink="http://www.w3.org/1999/xlink" x="0px" y="0px"
	 width="51.469px" height="50.9px" viewBox="0 0 51.469 50.9" enable-background="new 0 0 51.469 50.9" xml:space="preserve">
<g>
	<g>
		<path fill="currentColor" d="M13.137,46.66c0-0.243,0-0.409,0-0.576c0-2.628,0.004-5.256-0.007-7.884
			c-0.001-0.261,0.082-0.364,0.325-0.438c1.583-0.487,3.156-1.007,4.745-1.475c0.428-0.126,0.896-0.126,1.347-0.157
			c2.032-0.141,4.065-0.277,6.099-0.404c0.875-0.055,1.559,0.38,1.852,1.145c0.363,0.949-0.048,1.945-0.985,2.336
			c-0.672,0.281-1.356,0.53-2.034,0.795c-0.092,0.036-0.182,0.078-0.262,0.172c0.079,0.007,0.159,0.019,0.238,0.019
			c1.394,0.001,2.787,0.014,4.181-0.007c0.329-0.005,0.677-0.071,0.981-0.194c2.084-0.842,4.159-1.706,6.236-2.564
			c1.037-0.428,2.226-0.044,2.817,0.915c0.39,0.631,0.249,1.469-0.359,1.889c-0.406,0.281-0.85,0.511-1.289,0.741
			c-2.674,1.399-5.354,2.79-8.027,4.19c-0.525,0.275-1.067,0.425-1.665,0.429c-3.748,0.027-7.496,0.083-11.243,0.088
			c-0.877,0.001-1.672,0.144-2.389,0.657C13.545,46.445,13.372,46.525,13.137,46.66z"/>
		<path fill="currentColor" d="M6.331,42.851c0-1.815-0.001-3.63,0-5.446c0.001-0.605,0.173-0.783,0.765-0.783
			c1.361-0.001,2.724-0.001,4.086,0c0.578,0.001,0.762,0.183,0.762,0.755c0.002,3.663,0.003,7.325,0.004,10.987
			c0,0.565-0.17,0.733-0.738,0.734c-1.394,0.001-2.787,0.001-4.182,0c-0.525,0-0.697-0.173-0.697-0.706
			c-0.002-1.847-0.001-3.694-0.001-5.541C6.33,42.851,6.33,42.851,6.331,42.851z"/>
	</g>
	<g id="_06-meal">
		<g id="Glyph">
			<path fill="currentColor" d="M24.515,9.117c0.001-0.711,0.577-1.287,1.288-1.288h2.576c2.134-0.002,3.862-1.731,3.864-3.864V2.676
				h-2.576v1.288c0,0.711-0.577,1.287-1.288,1.288h-2.576c-2.133,0.002-3.861,1.731-3.864,3.864v1.288h2.576V9.117z"/>
			<path fill="currentColor" d="M32.243,10.405h2.576V9.117c0.001-0.711,0.577-1.287,1.288-1.288h2.576
				c2.134-0.002,3.862-1.731,3.865-3.864V2.676h-2.577v1.288c0,0.711-0.576,1.287-1.288,1.288h-2.576
				c-2.133,0.002-3.861,1.731-3.864,3.864V10.405z"/>
			<path fill="currentColor" d="M14.21,31.015h30.915v2.576H14.21V31.015z"/>
			<path fill="currentColor" d="M31.418,18.244l0.76-2.279c0.181-0.536-0.012-1.126-0.473-1.453c-0.121-0.154-0.308-0.244-0.504-0.243
				h-3.068c-0.196-0.001-0.382,0.089-0.503,0.243c-0.461,0.327-0.653,0.917-0.473,1.453l0.76,2.279
				c-6.126,0.772-11.05,5.414-12.184,11.482h27.867C42.468,23.657,37.543,19.016,31.418,18.244L31.418,18.244z M34.819,25.862
				c-0.711,0-1.288-0.577-1.288-1.288s0.577-1.288,1.288-1.288c0.712,0,1.288,0.577,1.288,1.288S35.531,25.862,34.819,25.862z"/>
		</g>
	</g>
</g>
</svg>
