<svg version="1.1" xmlns="http://www.w3.org/2000/svg" xmlns:xlink="http://www.w3.org/1999/xlink" x="0px" y="0px"
	 width="51.469px" height="50.9px" viewBox="0 0 51.469 50.9" enable-background="new 0 0 51.469 50.9" xml:space="preserve">
<g>
	<path fill="currentColor" d="M49.584,30.708h-0.549c0.274-3.073-1.37-4.504-1.37-4.504c-1.371-0.548-13.435-1.489-13.435-1.489
		c-2.193-4.113-4.661-5.723-4.661-5.723c-12.063-1.371-23.305-0.19-23.305-0.19c-2.193,3.564-1.92,11.394-1.92,11.394H2.701v2.163
		c1.024,0.751,4.1,1.501,4.588,1.627l1.169-4.094c0,0,1.097-1.646,2.193-1.372l4.661,0.274c0,0,1.645,0.418,2.193,2.064l0.657,3.434
		h17.986c0.093,0,0.182-0.14,0.272-0.139l1.099-3.916c0,0,1.097-1.681,2.193-1.407l4.661,0.256c0,0,1.645,0.266,2.193,1.91
		l0.604,3.01c2.326-0.104,2.412-0.278,2.412-0.278C50.406,30.987,49.584,30.708,49.584,30.708z M17.231,23.859l-7.677-0.274
		l-0.822-1.097l1.097-3.016l8.773,0.275L17.231,23.859z M22.44,24.167l0.267-4.215H22.44l0.274-0.137l-0.008,0.137h6.862
		l2.742,4.576L22.44,24.167z M47.116,29.683l-1.646-2.706l2.469,0.531c0.273,0,0.821,2.176,0.821,2.176L47.116,29.683L47.116,29.683
		z"/>
	<path fill="currentColor" d="M2.427,22.512h2.192c0,0-1.097,4.098-0.822,7.171H1.878C1.878,29.683,0.781,26.098,2.427,22.512z"/>
	<path fill="currentColor" d="M12.708,29.891c2.271,0,4.122,1.784,4.238,4.026c0.196,0.004,0.393,0.008,0.584,0.011l-0.497-2.667
		c-0.509-1.646-2.04-1.919-2.04-1.919l-4.335-0.274c-1.021-0.274-2.04,1.371-2.04,1.371l-0.879,3.307
		c0.214,0.004,0.465,0.009,0.738,0.014C8.67,31.592,10.489,29.891,12.708,29.891z"/>
	<path fill="currentColor" d="M41.77,30.165c2.272,0,4.122,1.784,4.238,4.027c0.197,0.003,0.393,0.007,0.585,0.011l-0.497-2.667
		c-0.51-1.645-2.04-1.92-2.04-1.92l-4.336-0.274c-1.021-0.274-2.04,1.371-2.04,1.371l-0.879,3.308
		c0.214,0.004,0.465,0.009,0.738,0.014C37.732,31.866,39.551,30.165,41.77,30.165z"/>
	<path fill="currentColor" d="M12.708,30.165c-2.196,0-3.976,1.78-3.976,3.976c0,2.196,1.779,3.976,3.976,3.976
		c2.195,0,3.976-1.78,3.976-3.976C16.684,31.945,14.903,30.165,12.708,30.165z M12.688,36.854c-1.556,0-2.816-1.261-2.816-2.817
		s1.261-2.817,2.816-2.817c1.557,0,2.817,1.261,2.817,2.817S14.245,36.854,12.688,36.854z"/>
	<path fill="currentColor" d="M41.77,30.439c-2.195,0-3.976,1.78-3.976,3.976s1.78,3.975,3.976,3.975s3.976-1.78,3.976-3.976
		S43.965,30.439,41.77,30.439z M41.884,37.366c-1.556,0-2.817-1.261-2.817-2.817s1.262-2.817,2.817-2.817s2.817,1.261,2.817,2.817
		S43.439,37.366,41.884,37.366z"/>
</g>
</svg>
