<svg version="1.1" xmlns="http://www.w3.org/2000/svg" xmlns:xlink="http://www.w3.org/1999/xlink" x="0px" y="0px"
	 width="51.469px" height="50.9px" viewBox="0 0 51.469 50.9" enable-background="new 0 0 51.469 50.9" xml:space="preserve">
<path fill="currentColor" d="M45.166,7.166H6.304c-2.209,0-3.998,1.79-3.998,3.999v23.989
	c0,2.209,1.789,3.998,3.998,3.998h15.593v3.616h-3.154c-1.491,0-2.7,1.208-2.7,2.7c0,1.493,1.209,2.7,2.7,2.7h13.985
	c1.491,0,2.699-1.209,2.699-2.7c0-1.492-1.207-2.7-2.699-2.7h-3.155v-3.616h15.594c2.209,0,3.998-1.789,3.998-3.998V11.164
	C49.164,8.956,47.375,7.166,45.166,7.166z M22.104,25.661c0.439,0.363,0.5,1.013,0.137,1.451c-0.203,0.246-0.499,0.373-0.794,0.373
	c-0.231,0-0.466-0.077-0.657-0.237l-3.973-3.297c-0.236-0.196-0.374-0.486-0.374-0.794c0-0.306,0.138-0.596,0.374-0.793l3.973-3.296
	c0.438-0.364,1.086-0.303,1.451,0.134c0.363,0.439,0.303,1.088-0.137,1.452l-3.017,2.503L22.104,25.661z M28.556,16.904
	l-3.786,13.08c-0.132,0.452-0.542,0.746-0.989,0.746c-0.097,0-0.192-0.015-0.288-0.042c-0.548-0.159-0.863-0.729-0.703-1.277
	l3.786-13.08c0.159-0.548,0.729-0.862,1.277-0.704C28.4,15.785,28.715,16.357,28.556,16.904z M34.529,23.95l-3.972,3.297
	c-0.192,0.161-0.427,0.238-0.657,0.238c-0.295,0-0.591-0.126-0.794-0.373c-0.364-0.438-0.305-1.088,0.136-1.451l3.017-2.505
	l-3.017-2.503c-0.44-0.363-0.5-1.014-0.136-1.452c0.363-0.438,1.013-0.499,1.451-0.134l3.972,3.296
	c0.237,0.197,0.373,0.487,0.373,0.793C34.902,23.463,34.767,23.753,34.529,23.95z"/>
</svg>
