<svg version="1.1" xmlns="http://www.w3.org/2000/svg" xmlns:xlink="http://www.w3.org/1999/xlink" x="0px" y="0px"
	 width="51.469px" height="50.9px" viewBox="0 0 51.469 50.9" enable-background="new 0 0 51.469 50.9" xml:space="preserve">
<g>
	<g>
		<g>
			<path fill="currentColor" d="M45.904,20.2c0.702,0,1.271-0.569,1.271-1.271v-5.085c0-0.703-0.569-1.271-1.271-1.271
				c-0.703,0-1.271,0.568-1.271,1.271v1.271H42.09v-1.271c0-0.703-0.568-1.271-1.271-1.271h-3.814V6.129
				c0-0.703-0.568-1.271-1.271-1.271H15.221c-0.703,0-1.271,0.569-1.271,1.271v6.442h-3.814c-0.702,0-1.271,0.568-1.271,1.271v1.271
				H6.321v-1.271c0-0.703-0.569-1.271-1.271-1.271c-0.703,0-1.271,0.568-1.271,1.271v5.085c0,0.703,0.568,1.271,1.271,1.271
				c0.702,0,1.271-0.569,1.271-1.271v-1.271h2.542v1.271c0,0.101,0.035,0.189,0.058,0.284c-0.251,0.34-0.459,0.725-0.601,1.155
				L4.05,38h42.854l-4.3-17.735c-0.132-0.396-0.326-0.756-0.565-1.078c0.019-0.086,0.052-0.167,0.052-0.258v-1.271h2.543v1.271
				C44.633,19.631,45.201,20.2,45.904,20.2z M20.307,12.571h10.341c0.702,0,1.271,0.568,1.271,1.271
				c0,0.703-0.569,1.271-1.271,1.271H20.307c-0.703,0-1.271-0.569-1.271-1.271C19.035,13.14,19.604,12.571,20.307,12.571z
				 M18.198,20.902L18.55,20.2h13.854l0.351,0.703c0.426,0.848-0.192,1.84-1.137,1.84H19.336
				C18.392,22.743,17.773,21.75,18.198,20.902z M11.406,15.114h2.543v2.542h-1.981c-0.194,0-0.373,0.061-0.562,0.09V15.114z
				 M12.678,35.457c-0.702,0-1.271-0.569-1.271-1.271s0.569-1.271,1.271-1.271s1.271,0.569,1.271,1.271S13.38,35.457,12.678,35.457z
				 M15.221,30.371c-0.702,0-1.271-0.569-1.271-1.271s0.569-1.271,1.271-1.271s1.271,0.569,1.271,1.271S15.923,30.371,15.221,30.371
				z M17.764,35.457c-0.702,0-1.271-0.569-1.271-1.271s0.569-1.271,1.271-1.271s1.271,0.569,1.271,1.271
				S18.466,35.457,17.764,35.457z M20.307,30.371c-0.702,0-1.271-0.569-1.271-1.271s0.569-1.271,1.271-1.271
				s1.271,0.569,1.271,1.271S21.009,30.371,20.307,30.371z M22.85,35.457c-0.703,0-1.271-0.569-1.271-1.271s0.568-1.271,1.271-1.271
				c0.702,0,1.355,0.569,1.355,1.271S23.552,35.457,22.85,35.457z M25.477,30.371c-0.702,0-1.271-0.569-1.271-1.271
				s0.569-1.271,1.271-1.271s1.271,0.569,1.271,1.271S26.179,30.371,25.477,30.371z M28.02,35.457c-0.702,0-1.271-0.569-1.271-1.271
				s0.569-1.271,1.271-1.271s1.271,0.569,1.271,1.271S28.722,35.457,28.02,35.457z M30.647,30.371c-0.702,0-1.356-0.569-1.356-1.271
				s0.654-1.271,1.356-1.271s1.271,0.569,1.271,1.271S31.35,30.371,30.647,30.371z M33.19,35.457c-0.702,0-1.271-0.569-1.271-1.271
				s0.569-1.271,1.271-1.271s1.271,0.569,1.271,1.271S33.893,35.457,33.19,35.457z M35.732,30.371c-0.702,0-1.271-0.569-1.271-1.271
				s0.569-1.271,1.271-1.271s1.271,0.569,1.271,1.271S36.435,30.371,35.732,30.371z M38.275,35.457
				c-0.702,0-1.271-0.569-1.271-1.271s0.569-1.271,1.271-1.271s1.271,0.569,1.271,1.271S38.978,35.457,38.275,35.457z
				 M39.547,17.746c-0.188-0.029-0.366-0.089-0.561-0.089h-1.982v-2.542h2.543V17.746z"/>
		</g>
	</g>
	<g>
		<g>
			<path fill="currentColor" d="M3.778,40.542v3.899c0,2.103,1.711,3.814,3.813,3.814h35.77c2.104,0,3.814-1.711,3.814-3.814v-3.899
				H3.778z"/>
		</g>
	</g>
</g>
</svg>
