<svg version="1.1" xmlns="http://www.w3.org/2000/svg" xmlns:xlink="http://www.w3.org/1999/xlink" x="0px" y="0px"
	 width="51.469px" height="50.9px" viewBox="0 0 51.469 50.9" enable-background="new 0 0 51.469 50.9" xml:space="preserve">
<g>
	<path fill="currentColor" d="M26.558,4.563c-3.164,3.435-2.962,5.902,0,9.192C29.722,10.318,29.519,7.851,26.558,4.563z"/>
	<path fill="currentColor" d="M23.494,29.878v4.446l-3.453,6.413c-0.377,0.699-0.115,1.571,0.584,1.948
		c0.21,0.113,0.444,0.172,0.683,0.172h5.251v4.514c-0.018,0.771,0.52,1.442,1.274,1.593c0.834,0.141,1.626-0.42,1.767-1.254
		c0.016-0.086,0.022-0.171,0.022-0.257V29.878c3.409-1.691,4.803-5.822,3.113-9.231c-0.652-1.318-1.71-2.391-3.016-3.064
		l-0.016-0.007c-0.904-0.438-1.985-0.279-2.725,0.4l-0.421,0.374c2.54,0,4.598,2.057,4.599,4.595
		c0.002,2.16-1.501,4.029-3.609,4.492c-0.301,0.062-0.608,0.094-0.916,0.096c1.233-0.073,2.176-1.133,2.102-2.368
		c-0.073-1.234-1.135-2.175-2.368-2.102c-1.234,0.074-2.175,1.134-2.102,2.368c0.07,1.191,1.065,2.117,2.259,2.106
		c-2.537-0.018-4.579-2.089-4.561-4.627c0.018-2.524,2.07-4.561,4.596-4.561l-0.411-0.362c-0.745-0.685-1.835-0.838-2.741-0.388
		c-2.286,1.196-3.725,3.556-3.741,6.136C19.676,26.343,21.156,28.722,23.494,29.878z M26.558,35.964v3.83h-3.064l2.128-3.83H26.558z
		"/>
	<rect x="34.982" y="12.221" fill="currentColor" width="3.063" height="1.534"/>
	
		<rect x="34.984" y="4.563" transform="matrix(0.7069 -0.7073 0.7073 0.7069 6.9318 27.3876)" fill="currentColor" width="3.063" height="1.532"/>
	<rect x="15.069" y="12.221" fill="currentColor" width="3.063" height="1.534"/>
	
		<rect x="15.835" y="3.796" transform="matrix(0.7073 -0.7069 0.7069 0.7073 1.0928 13.2959)" fill="currentColor" width="1.531" height="3.064"/>
	<path fill="currentColor" d="M27.655,13.663c3.552-0.429,4.831-2.24,5.029-6.037c-1.079,0.012-2.146,0.213-3.154,0.595
		C29.887,10.006,29.266,11.735,27.655,13.663z"/>
	<path fill="currentColor" d="M25.464,13.654c-1.592-1.942-2.219-3.667-1.892-5.423c-1.005-0.376-2.067-0.581-3.142-0.604
		C20.595,11.617,22.082,13.226,25.464,13.654z"/>
</g>
</svg>
